<svg width="152" height="50" viewBox="0 0 152 50" fill="none" xmlns="http://www.w3.org/2000/svg">
<g clip-path="url(#clip0)">
<path d="M23.1387 23.1552L0.677734 13.698C0.355957 13.5624 0 13.7988 0 14.148V39.4311C0 40.0699 0.388965 40.6446 0.982227 40.8818L22.7679 49.596C23.0886 49.7243 23.4375 49.4881 23.4375 49.1427V23.6052C23.4375 23.4087 23.3197 23.2315 23.1387 23.1552V23.1552Z" fill="white"/>
<path d="M25.1895 20.4684L46.8999 11.3272C47.2902 11.1629 47.3006 10.6137 46.9169 10.4347L25.6608 0.515149C25.2419 0.319739 24.7581 0.319739 24.3393 0.515149L3.08312 10.4347C2.69943 10.6137 2.70988 11.1629 3.10011 11.3272L24.8106 20.4684C24.9317 20.5194 25.0684 20.5194 25.1895 20.4684V20.4684Z" fill="white"/>
<path d="M26.5625 23.6052V49.1427C26.5625 49.4881 26.9114 49.7243 27.2321 49.596L49.0178 40.8818C49.6109 40.6445 50 40.0699 50 39.4311V14.148C50 13.7988 49.644 13.5624 49.3223 13.698L26.8613 23.1552C26.6803 23.2315 26.5625 23.4087 26.5625 23.6052V23.6052Z" fill="white"/>
</g>
<path d="M59.5439 32.7368H57.4321V40H53.77V22.2266H57.4321V29.3433H59.1045L63.4502 22.2266H67.918L62.437 30.6372L68.4917 40H64.1216L59.5439 32.7368ZM68.7847 33.2739C68.7847 31.9637 69.0369 30.7959 69.5415 29.7705C70.0461 28.7451 70.7703 27.9517 71.7144 27.3901C72.6665 26.8286 73.7692 26.5479 75.0225 26.5479C76.8047 26.5479 78.2573 27.0931 79.3804 28.1836C80.5116 29.2741 81.1423 30.7552 81.2725 32.627L81.2969 33.5303C81.2969 35.5566 80.7313 37.1842 79.6001 38.4131C78.4689 39.6338 76.9512 40.2441 75.0469 40.2441C73.1426 40.2441 71.6208 39.6338 70.4814 38.4131C69.3503 37.1924 68.7847 35.5322 68.7847 33.4326V33.2739ZM72.3125 33.5303C72.3125 34.7835 72.5485 35.7438 73.0205 36.4111C73.4925 37.0703 74.168 37.3999 75.0469 37.3999C75.9014 37.3999 76.5687 37.0744 77.0488 36.4233C77.529 35.7642 77.769 34.7144 77.769 33.2739C77.769 32.0451 77.529 31.0929 77.0488 30.4175C76.5687 29.742 75.8932 29.4043 75.0225 29.4043C74.1598 29.4043 73.4925 29.742 73.0205 30.4175C72.5485 31.0848 72.3125 32.1224 72.3125 33.5303ZM95.3594 33.5181C95.3594 35.5526 94.8955 37.1842 93.9678 38.4131C93.0482 39.6338 91.8031 40.2441 90.2324 40.2441C88.8978 40.2441 87.8195 39.7803 86.9976 38.8525V45.0781H83.4697V26.792H86.7412L86.8633 28.0859C87.7178 27.0605 88.8327 26.5479 90.208 26.5479C91.8356 26.5479 93.1011 27.1501 94.0044 28.3545C94.9077 29.5589 95.3594 31.2191 95.3594 33.335V33.5181ZM91.8315 33.2617C91.8315 32.0329 91.6118 31.0848 91.1724 30.4175C90.741 29.7502 90.1104 29.4165 89.2803 29.4165C88.1735 29.4165 87.4126 29.8397 86.9976 30.686V36.0938C87.4289 36.9645 88.1979 37.3999 89.3047 37.3999C90.9893 37.3999 91.8315 36.0205 91.8315 33.2617ZM97.0073 33.2739C97.0073 31.9637 97.2596 30.7959 97.7642 29.7705C98.2687 28.7451 98.993 27.9517 99.937 27.3901C100.889 26.8286 101.992 26.5479 103.245 26.5479C105.027 26.5479 106.48 27.0931 107.603 28.1836C108.734 29.2741 109.365 30.7552 109.495 32.627L109.52 33.5303C109.52 35.5566 108.954 37.1842 107.823 38.4131C106.692 39.6338 105.174 40.2441 103.27 40.2441C101.365 40.2441 99.8434 39.6338 98.7041 38.4131C97.5729 37.1924 97.0073 35.5322 97.0073 33.4326V33.2739ZM100.535 33.5303C100.535 34.7835 100.771 35.7438 101.243 36.4111C101.715 37.0703 102.391 37.3999 103.27 37.3999C104.124 37.3999 104.791 37.0744 105.271 36.4233C105.752 35.7642 105.992 34.7144 105.992 33.2739C105.992 32.0451 105.752 31.0929 105.271 30.4175C104.791 29.742 104.116 29.4043 103.245 29.4043C102.382 29.4043 101.715 29.742 101.243 30.4175C100.771 31.0848 100.535 32.1224 100.535 33.5303ZM118.248 27.5244C119.94 27.5244 121.291 28.0859 122.3 29.209C123.309 30.332 123.814 31.8579 123.814 33.7866V33.9575C123.814 35.8618 123.252 37.3877 122.129 38.5352C121.006 39.6826 119.497 40.2563 117.601 40.2563C115.696 40.2563 114.179 39.6379 113.047 38.4009C111.924 37.1558 111.363 35.4671 111.363 33.335V32.749C111.379 29.7786 111.88 27.4552 112.864 25.7788C113.857 24.0942 115.346 23.0322 117.332 22.5928C118.374 22.3649 119.045 22.1411 119.346 21.9214C119.647 21.6935 119.798 21.3802 119.798 20.9814H122.654C122.654 22.2591 122.308 23.2194 121.617 23.8623C120.933 24.5052 119.712 25.0016 117.955 25.3516C116.913 25.5632 116.091 25.9741 115.489 26.5845C114.887 27.1948 114.48 28.0534 114.268 29.1602C115.391 28.0697 116.718 27.5244 118.248 27.5244ZM117.576 30.3809C116.738 30.3809 116.079 30.6616 115.599 31.2231C115.127 31.7847 114.891 32.6961 114.891 33.9575C114.891 35.0806 115.123 35.9391 115.586 36.5332C116.05 37.1191 116.722 37.4121 117.601 37.4121C118.455 37.4121 119.114 37.1232 119.578 36.5454C120.042 35.9676 120.278 35.1172 120.286 33.9941V33.7012C120.286 32.6188 120.046 31.7969 119.566 31.2354C119.094 30.6657 118.431 30.3809 117.576 30.3809ZM130.882 35.1294H129.466V40H125.938V26.792H129.466V31.7603H130.723L133.604 26.792H138.06L133.738 33.0786L138.462 40H133.763L130.882 35.1294ZM147.447 40C147.284 39.6826 147.166 39.2879 147.093 38.8159C146.238 39.7681 145.127 40.2441 143.76 40.2441C142.466 40.2441 141.392 39.8698 140.538 39.1211C139.691 38.3724 139.268 37.4284 139.268 36.2891C139.268 34.8893 139.785 33.8151 140.818 33.0664C141.86 32.3177 143.361 31.9393 145.323 31.9312H146.946V31.1743C146.946 30.564 146.788 30.0757 146.47 29.7095C146.161 29.3433 145.669 29.1602 144.993 29.1602C144.399 29.1602 143.931 29.3026 143.589 29.5874C143.256 29.8722 143.089 30.2629 143.089 30.7593H139.561C139.561 29.9943 139.797 29.2863 140.269 28.6353C140.741 27.9842 141.408 27.4756 142.271 27.1094C143.134 26.735 144.102 26.5479 145.176 26.5479C146.804 26.5479 148.094 26.9588 149.046 27.7808C150.006 28.5946 150.486 29.742 150.486 31.2231V36.9482C150.494 38.2015 150.669 39.1496 151.011 39.7925V40H147.447ZM144.529 37.5464C145.05 37.5464 145.53 37.4325 145.97 37.2046C146.409 36.9686 146.735 36.6553 146.946 36.2646V33.9941H145.628C143.862 33.9941 142.922 34.6045 142.808 35.8252L142.796 36.0327C142.796 36.4722 142.951 36.8343 143.26 37.1191C143.569 37.404 143.992 37.5464 144.529 37.5464Z" fill="white"/>
<defs>
<clipPath id="clip0">
<rect width="50" height="50" fill="white"/>
</clipPath>
</defs>
</svg>
