<svg width="30" height="30" viewBox="0 0 30 30" fill="none" xmlns="http://www.w3.org/2000/svg">
<path d="M14.1125 14.9999L18.5375 10.5749C18.7703 10.3407 18.901 10.0239 18.901 9.69362C18.901 9.36339 18.7703 9.04658 18.5375 8.81237C18.4213 8.69521 18.2831 8.60222 18.1307 8.53876C17.9784 8.4753 17.815 8.44263 17.65 8.44263C17.485 8.44263 17.3216 8.4753 17.1693 8.53876C17.017 8.60222 16.8787 8.69521 16.7625 8.81237L11.4625 14.1124C11.3454 14.2286 11.2524 14.3668 11.1889 14.5192C11.1254 14.6715 11.0928 14.8349 11.0928 14.9999C11.0928 15.1649 11.1254 15.3283 11.1889 15.4806C11.2524 15.6329 11.3454 15.7712 11.4625 15.8874L16.7625 21.2499C16.8793 21.3657 17.0178 21.4574 17.1701 21.5196C17.3224 21.5818 17.4855 21.6133 17.65 21.6124C17.8145 21.6133 17.9776 21.5818 18.1299 21.5196C18.2822 21.4574 18.4207 21.3657 18.5375 21.2499C18.7703 21.0157 18.901 20.6989 18.901 20.3686C18.901 20.0384 18.7703 19.7216 18.5375 19.4874L14.1125 14.9999Z" fill="#222528"/>
</svg>
