<svg width="30" height="30" viewBox="0 0 30 30" fill="none" xmlns="http://www.w3.org/2000/svg">
<path d="M15 2.5C12.5277 2.5 10.111 3.23311 8.05538 4.60663C5.99976 5.98015 4.39761 7.93238 3.45151 10.2165C2.50542 12.5005 2.25787 15.0139 2.74019 17.4386C3.2225 19.8634 4.41301 22.0907 6.16117 23.8388C7.90933 25.587 10.1366 26.7775 12.5614 27.2598C14.9861 27.7421 17.4995 27.4946 19.7836 26.5485C22.0676 25.6024 24.0199 24.0002 25.3934 21.9446C26.7669 19.889 27.5 17.4723 27.5 15C27.5 13.3585 27.1767 11.733 26.5485 10.2165C25.9203 8.69989 24.9996 7.3219 23.8388 6.16116C22.6781 5.00043 21.3001 4.07969 19.7836 3.45151C18.267 2.82332 16.6415 2.5 15 2.5ZM15 25C12.3478 25 9.8043 23.9464 7.92894 22.0711C6.05357 20.1957 5.00001 17.6522 5.00001 15C4.99724 12.7792 5.74127 10.6219 7.11251 8.875L21.125 22.8875C19.3781 24.2587 17.2208 25.0028 15 25ZM22.8875 21.125L8.87501 7.1125C10.6219 5.74127 12.7792 4.99724 15 5C17.6522 5 20.1957 6.05357 22.0711 7.92893C23.9464 9.8043 25 12.3478 25 15C25.0028 17.2208 24.2587 19.3781 22.8875 21.125Z" fill="#222528"/>
</svg>
