<svg width="30" height="30" viewBox="0 0 30 30" fill="none" xmlns="http://www.w3.org/2000/svg">
<path d="M27.4996 13.7499C27.5031 12.8688 27.2737 12.0025 26.8347 11.2386C26.3957 10.4747 25.7626 9.84038 24.9996 9.39985C25.0184 9.1836 25.0184 8.96611 24.9996 8.74986C24.9996 7.75529 24.6045 6.80147 23.9013 6.0982C23.198 5.39494 22.2442 4.99986 21.2496 4.99986H21.0246C20.8165 4.42275 20.4699 3.90552 20.0153 3.49354C19.5607 3.08156 19.012 2.7874 18.4172 2.63686C17.8225 2.48632 17.1999 2.484 16.604 2.63011C16.0082 2.77621 15.4573 3.06627 14.9996 3.47485C14.542 3.06627 13.9911 2.77621 13.3952 2.63011C12.7994 2.484 12.1768 2.48632 11.582 2.63686C10.9873 2.7874 10.4385 3.08156 9.98394 3.49354C9.52934 3.90552 9.18277 4.42275 8.97461 4.99986H8.74961C7.75505 4.99986 6.80122 5.39494 6.09796 6.0982C5.3947 6.80147 4.99961 7.75529 4.99961 8.74986C4.9808 8.96611 4.9808 9.1836 4.99961 9.39985C4.29019 9.80085 3.68953 10.3692 3.24991 11.0553C2.8103 11.7415 2.54506 12.5247 2.47729 13.3368C2.40951 14.1489 2.54125 14.9652 2.86104 15.7148C3.18083 16.4643 3.67897 17.1243 4.31211 17.6374C3.90245 18.4014 3.69851 19.2589 3.7203 20.1256C3.74208 20.9923 3.98886 21.8384 4.43639 22.581C4.88393 23.3235 5.51685 23.9369 6.27303 24.361C7.02921 24.7851 7.88266 25.0052 8.74961 24.9999H8.97461C9.18277 25.577 9.52934 26.0942 9.98394 26.5062C10.4385 26.9182 10.9873 27.2123 11.582 27.3629C12.1768 27.5134 12.7994 27.5157 13.3952 27.3696C13.9911 27.2235 14.542 26.9334 14.9996 26.5249C15.4573 26.9334 16.0082 27.2235 16.604 27.3696C17.1999 27.5157 17.8225 27.5134 18.4172 27.3629C19.012 27.2123 19.5607 26.9182 20.0153 26.5062C20.4699 26.0942 20.8165 25.577 21.0246 24.9999H21.2496C22.1113 24.9944 22.9569 24.7664 23.7045 24.3379C24.4521 23.9094 25.0762 23.2949 25.5164 22.5542C25.9566 21.8134 26.1978 20.9715 26.2168 20.11C26.2358 19.2485 26.0318 18.3968 25.6246 17.6374C26.2077 17.1706 26.6787 16.5791 27.0032 15.9063C27.3276 15.2336 27.4973 14.4967 27.4996 13.7499ZM13.7496 10.6874C13.4774 10.5316 13.1931 10.3979 12.8996 10.2874C12.5847 10.1813 12.2405 10.2046 11.9428 10.3523C11.6451 10.5 11.4182 10.7599 11.3121 11.0749C11.206 11.3898 11.2294 11.734 11.3771 12.0317C11.5248 12.3294 11.7847 12.5563 12.0996 12.6624C12.5808 12.8363 12.997 13.1537 13.2921 13.5717C13.5871 13.9897 13.7468 14.4882 13.7496 14.9999V16.9374C13.4774 16.7816 13.1931 16.6479 12.8996 16.5374C12.5847 16.4313 12.2405 16.4546 11.9428 16.6023C11.6451 16.75 11.4182 17.0099 11.3121 17.3249C11.206 17.6398 11.2294 17.984 11.3771 18.2817C11.5248 18.5794 11.7847 18.8063 12.0996 18.9124C12.5808 19.0863 12.997 19.4037 13.2921 19.8217C13.5871 20.2397 13.7468 20.7382 13.7496 21.2499V23.7499C13.7496 24.0814 13.6179 24.3993 13.3835 24.6337C13.1491 24.8682 12.8311 24.9999 12.4996 24.9999C12.2578 24.9983 12.0216 24.9266 11.8197 24.7935C11.6178 24.6603 11.4588 24.4715 11.3621 24.2499C11.5717 24.1269 11.7722 23.989 11.9621 23.8374C12.0885 23.7323 12.193 23.6034 12.2695 23.4579C12.3461 23.3125 12.3933 23.1534 12.4084 22.9898C12.4235 22.8261 12.4062 22.6611 12.3575 22.5041C12.3088 22.3471 12.2297 22.2013 12.1246 22.0749C12.0196 21.9485 11.8906 21.844 11.7452 21.7674C11.5998 21.6908 11.4407 21.6437 11.277 21.6286C11.1134 21.6135 10.9483 21.6308 10.7913 21.6795C10.6344 21.7282 10.4885 21.8073 10.3621 21.9124C9.91077 22.2923 9.3396 22.5004 8.74961 22.4999C8.08657 22.4999 7.45069 22.2365 6.98185 21.7676C6.51301 21.2988 6.24961 20.6629 6.24961 19.9999C6.25559 19.5293 6.39424 19.0701 6.64961 18.6749C6.93014 18.7252 7.21461 18.7503 7.49961 18.7499C7.83113 18.7499 8.14908 18.6182 8.3835 18.3837C8.61792 18.1493 8.74961 17.8314 8.74961 17.4999C8.74961 17.1683 8.61792 16.8504 8.3835 16.616C8.14908 16.3816 7.83113 16.2499 7.49961 16.2499C7.20435 16.2516 6.91152 16.1964 6.63711 16.0874C6.18754 15.9252 5.79387 15.6376 5.50273 15.2586C5.21158 14.8796 5.03518 14.4251 4.9944 13.9489C4.95362 13.4728 5.05019 12.9949 5.27265 12.5719C5.49511 12.1489 5.83416 11.7986 6.24961 11.5624C6.42724 11.7258 6.61974 11.8722 6.82461 11.9999C7.11304 12.1656 7.45549 12.21 7.77665 12.1233C8.09781 12.0365 8.37135 11.8258 8.53711 11.5374C8.70287 11.2489 8.74727 10.9065 8.66053 10.5853C8.5738 10.2642 8.36304 9.99062 8.07461 9.82485C7.89865 9.72778 7.75189 9.58535 7.64961 9.41236C7.53405 9.21166 7.48177 8.98075 7.49961 8.74986C7.49961 8.41833 7.63131 8.10039 7.86573 7.86597C8.10015 7.63155 8.41809 7.49986 8.74961 7.49986C8.83669 7.48771 8.92503 7.48771 9.01211 7.49986C9.07829 7.70069 9.15763 7.89695 9.24961 8.08735C9.33128 8.23059 9.44047 8.35625 9.5709 8.45711C9.70134 8.55796 9.85043 8.63202 10.0096 8.67501C10.1688 8.718 10.3349 8.72907 10.4984 8.70759C10.6618 8.68611 10.8194 8.6325 10.9621 8.54986C11.2392 8.38311 11.441 8.11545 11.5249 7.8031C11.6088 7.49075 11.5684 7.15803 11.4121 6.87486C11.3072 6.68311 11.2514 6.4684 11.2496 6.24986C11.2496 5.91833 11.3813 5.60039 11.6157 5.36597C11.8501 5.13155 12.1681 4.99985 12.4996 4.99986C12.8311 4.99985 13.1491 5.13155 13.3835 5.36597C13.6179 5.60039 13.7496 5.91833 13.7496 6.24986V10.6874ZM23.3621 16.0874C23.0877 16.1964 22.7949 16.2516 22.4996 16.2499C22.1681 16.2499 21.8501 16.3816 21.6157 16.616C21.3813 16.8504 21.2496 17.1683 21.2496 17.4999C21.2496 17.8314 21.3813 18.1493 21.6157 18.3837C21.8501 18.6182 22.1681 18.7499 22.4996 18.7499C22.7846 18.7503 23.0691 18.7252 23.3496 18.6749C23.605 19.0701 23.7436 19.5293 23.7496 19.9999C23.7496 20.6629 23.4862 21.2988 23.0174 21.7676C22.5485 22.2365 21.9127 22.4999 21.2496 22.4999C20.6596 22.5004 20.0884 22.2923 19.6371 21.9124C19.3818 21.7002 19.0527 21.5981 18.7222 21.6286C18.3917 21.6591 18.0868 21.8196 17.8746 22.0749C17.6624 22.3301 17.5604 22.6592 17.5908 22.9898C17.6213 23.3203 17.7818 23.6252 18.0371 23.8374C18.227 23.989 18.4275 24.1269 18.6371 24.2499C18.5404 24.4715 18.3814 24.6603 18.1795 24.7935C17.9776 24.9266 17.7414 24.9983 17.4996 24.9999C17.1681 24.9999 16.8501 24.8682 16.6157 24.6337C16.3813 24.3993 16.2496 24.0814 16.2496 23.7499V21.2499C16.2524 20.7382 16.4121 20.2397 16.7072 19.8217C17.0022 19.4037 17.4184 19.0863 17.8996 18.9124C18.2146 18.8063 18.4745 18.5794 18.6221 18.2817C18.7698 17.984 18.7932 17.6398 18.6871 17.3249C18.581 17.0099 18.3542 16.75 18.0565 16.6023C17.7587 16.4546 17.4146 16.4313 17.0996 16.5374C16.8061 16.6479 16.5219 16.7816 16.2496 16.9374V14.9999C16.2524 14.4882 16.4121 13.9897 16.7072 13.5717C17.0022 13.1537 17.4184 12.8363 17.8996 12.6624C18.0556 12.6098 18.1996 12.5271 18.3236 12.4189C18.4476 12.3107 18.549 12.1791 18.6221 12.0317C18.6953 11.8843 18.7386 11.7239 18.7498 11.5597C18.7609 11.3956 18.7396 11.2308 18.6871 11.0749C18.6346 10.9189 18.5519 10.7748 18.4436 10.6509C18.3354 10.5269 18.2039 10.4254 18.0565 10.3523C17.909 10.2792 17.7487 10.2358 17.5845 10.2247C17.4203 10.2135 17.2556 10.2348 17.0996 10.2874C16.8061 10.3979 16.5219 10.5316 16.2496 10.6874V6.24986C16.2496 5.91833 16.3813 5.60039 16.6157 5.36597C16.8501 5.13155 17.1681 4.99985 17.4996 4.99986C17.8311 4.99985 18.1491 5.13155 18.3835 5.36597C18.6179 5.60039 18.7496 5.91833 18.7496 6.24986C18.7478 6.4684 18.692 6.68311 18.5871 6.87486C18.5039 7.01678 18.4496 7.17372 18.4272 7.33668C18.4048 7.49964 18.4148 7.66542 18.4566 7.82452C18.4984 7.98361 18.5712 8.13289 18.6708 8.26379C18.7705 8.3947 18.8949 8.50465 19.0371 8.58735C19.1798 8.67 19.3374 8.72361 19.5009 8.74509C19.6643 8.76657 19.8304 8.7555 19.9896 8.71251C20.1488 8.66952 20.2979 8.59546 20.4283 8.49461C20.5588 8.39375 20.6679 8.26809 20.7496 8.12486C20.8432 7.92228 20.9225 7.71344 20.9871 7.49986C21.0742 7.48771 21.1625 7.48771 21.2496 7.49986C21.5811 7.49986 21.8991 7.63155 22.1335 7.86597C22.3679 8.10039 22.4996 8.41833 22.4996 8.74986C22.4977 8.9949 22.4238 9.23397 22.2871 9.43736C22.1849 9.59956 22.0429 9.73295 21.8746 9.82485C21.5862 9.99062 21.3754 10.2642 21.2887 10.5853C21.202 10.9065 21.2463 11.2489 21.4121 11.5374C21.5779 11.8258 21.8514 12.0365 22.1726 12.1233C22.4937 12.21 22.8362 12.1656 23.1246 11.9999C23.349 11.8785 23.5588 11.7317 23.7496 11.5624C24.1665 11.7944 24.5083 12.1409 24.7346 12.5609C24.9609 12.9809 25.0623 13.4569 25.0268 13.9327C24.9913 14.4085 24.8204 14.8642 24.5343 15.246C24.2482 15.6278 23.8588 15.9197 23.4121 16.0874H23.3621Z" fill="black"/>
</svg>
