<svg width="30" height="30" viewBox="0 0 30 30" fill="none" xmlns="http://www.w3.org/2000/svg">
<path d="M10.5853 10.4937L10.5828 10.495L10.5791 10.4974L10.5853 10.4937ZM23.0278 10.26C22.9409 10.1761 22.8444 10.1026 22.7403 10.0412C22.593 9.95447 22.4295 9.89888 22.2599 9.87786C22.0902 9.85684 21.9181 9.87084 21.754 9.91899C21.59 9.96714 21.4376 10.0484 21.3063 10.1578C21.1749 10.2672 21.0674 10.4024 20.9903 10.555C20.5598 11.4036 19.966 12.1589 19.2428 12.7774C19.3537 12.1544 19.4098 11.5228 19.4103 10.8899C19.4127 8.96512 18.905 7.07404 17.9389 5.40923C16.9728 3.74443 15.5827 2.36537 13.9103 1.41245C13.726 1.30774 13.5181 1.25161 13.3062 1.24934C13.0942 1.24707 12.8852 1.29874 12.6987 1.39948C12.5122 1.50023 12.3544 1.64675 12.2401 1.82526C12.1258 2.00377 12.0588 2.20841 12.0453 2.41995C11.9753 3.60508 11.6655 4.76366 11.1346 5.82551C10.6036 6.88737 9.86269 7.83039 8.95658 8.59745L8.66908 8.8312C7.72109 9.46901 6.88202 10.2553 6.18408 11.16C5.09942 12.5263 4.34806 14.1267 3.9896 15.834C3.63113 17.5413 3.67542 19.3087 4.11894 20.996C4.56247 22.6832 5.39303 24.2439 6.54476 25.5543C7.69649 26.8646 9.1377 27.8886 10.7541 28.545C10.9439 28.6222 11.1497 28.6516 11.3535 28.6306C11.5573 28.6096 11.7528 28.5388 11.9229 28.4245C12.0929 28.3101 12.2322 28.1557 12.3285 27.9749C12.4249 27.7941 12.4753 27.5923 12.4753 27.3874C12.4743 27.255 12.4532 27.1236 12.4128 26.9974C12.1332 25.9463 12.0526 24.852 12.1753 23.7712C13.3584 26.0019 15.2573 27.77 17.5666 28.7912C17.8483 28.9172 18.1668 28.9341 18.4603 28.8387C20.2847 28.2498 21.9281 27.2042 23.2346 25.8012C24.541 24.3983 25.4671 22.6846 25.9248 20.823C26.3824 18.9614 26.3565 17.0136 25.8495 15.1649C25.3425 13.3161 24.3711 11.6276 23.0278 10.26ZM18.1466 26.2987C17.0569 25.7466 16.0957 24.9713 15.3254 24.0233C14.555 23.0753 13.9928 21.9758 13.6753 20.7962C13.5783 20.399 13.5031 19.9967 13.4503 19.5912C13.4148 19.333 13.2994 19.0924 13.1203 18.903C12.9412 18.7136 12.7074 18.5849 12.4516 18.5349C12.3729 18.5197 12.293 18.5121 12.2128 18.5124C11.9932 18.5122 11.7774 18.5699 11.5871 18.6796C11.3969 18.7893 11.2389 18.9472 11.1291 19.1374C10.0921 20.9265 9.57079 22.9678 9.62283 25.035C8.71052 24.3258 7.94805 23.4427 7.3796 22.4367C6.81115 21.4307 6.44803 20.3219 6.31129 19.1745C6.17456 18.0271 6.26692 16.864 6.58304 15.7526C6.89915 14.6412 7.43272 13.6036 8.15283 12.6999C8.6996 11.9897 9.35919 11.3741 10.1053 10.8774C10.138 10.8565 10.1693 10.8335 10.1991 10.8087C10.1991 10.8087 10.5691 10.5025 10.5816 10.4962C12.3631 8.99001 13.6303 6.96553 14.2066 4.70495C15.5684 5.96416 16.4763 7.63777 16.7893 9.46591C17.1024 11.294 16.8031 13.1744 15.9378 14.8149C15.8233 15.0339 15.7763 15.2819 15.8027 15.5276C15.829 15.7733 15.9276 16.0057 16.086 16.1953C16.2444 16.385 16.4554 16.5235 16.6925 16.5933C16.9295 16.6631 17.1819 16.661 17.4178 16.5875C19.3325 15.987 21.0172 14.8144 22.2453 13.2274C22.9837 14.3177 23.4665 15.5606 23.6577 16.8635C23.8489 18.1663 23.7435 19.4955 23.3495 20.7519C22.9555 22.0084 22.2831 23.1597 21.3822 24.1201C20.4813 25.0805 19.3753 25.8252 18.1466 26.2987Z" fill="black"/>
</svg>
