<svg width="30" height="30" viewBox="0 0 30 30" fill="none" xmlns="http://www.w3.org/2000/svg">
<path d="M25.2003 6.24996C23.8753 4.92147 22.1189 4.11064 20.2483 3.96393C18.3777 3.81721 16.5163 4.34429 15.0003 5.44996C13.4099 4.26701 11.4303 3.7306 9.46024 3.94876C7.49016 4.16692 5.67589 5.12343 4.38281 6.62569C3.08973 8.12795 2.41387 10.0644 2.49135 12.045C2.56882 14.0256 3.39387 15.9033 4.80034 17.3L12.5628 25.075C13.2129 25.7147 14.0883 26.0732 15.0003 26.0732C15.9124 26.0732 16.7878 25.7147 17.4378 25.075L25.2003 17.3C26.6598 15.8315 27.479 13.8453 27.479 11.775C27.479 9.70462 26.6598 7.71838 25.2003 6.24996ZM23.4378 15.575L15.6753 23.3375C15.587 23.4267 15.4819 23.4975 15.366 23.5458C15.2502 23.5941 15.1259 23.619 15.0003 23.619C14.8748 23.619 14.7505 23.5941 14.6347 23.5458C14.5188 23.4975 14.4137 23.4267 14.3253 23.3375L6.56284 15.5375C5.58254 14.5354 5.03361 13.1893 5.03361 11.7875C5.03361 10.3856 5.58254 9.03953 6.56284 8.03746C7.56179 7.0512 8.90906 6.49817 10.3128 6.49817C11.7166 6.49817 13.0639 7.0512 14.0628 8.03746C14.179 8.15462 14.3173 8.24762 14.4696 8.31108C14.6219 8.37454 14.7853 8.40721 14.9503 8.40721C15.1154 8.40721 15.2787 8.37454 15.4311 8.31108C15.5834 8.24762 15.7216 8.15462 15.8378 8.03746C16.8368 7.0512 18.1841 6.49817 19.5878 6.49817C20.9916 6.49817 22.3389 7.0512 23.3378 8.03746C24.3316 9.0264 24.8986 10.3652 24.9173 11.7671C24.936 13.1689 24.4049 14.5224 23.4378 15.5375V15.575Z" fill="#222528"/>
</svg>
