<svg width="30" height="30" viewBox="0 0 30 30" fill="none" xmlns="http://www.w3.org/2000/svg">
<path d="M23.7405 26.2524H22.4905V24.1687C22.4865 23.4532 22.3596 22.7437 22.1155 22.0712C22.1022 22.0355 22.0872 22.0005 22.0705 21.9662C21.8683 21.4141 21.5888 20.8936 21.2405 20.4199L19.4905 18.0862C19.005 17.4359 18.742 16.6465 18.7405 15.8349V14.5724C18.7436 13.5791 19.1379 12.6271 19.838 11.9224L20.6593 11.0999C21.6142 10.1401 22.2277 8.89341 22.4055 7.55119C22.4055 7.53494 22.4155 7.51994 22.4155 7.50119L22.4118 7.48494C22.4552 7.21899 22.4816 6.95052 22.4905 6.68119V3.75244H23.7405C24.072 3.75244 24.39 3.62075 24.6244 3.38632C24.8588 3.1519 24.9905 2.83396 24.9905 2.50244C24.9905 2.17092 24.8588 1.85298 24.6244 1.61856C24.39 1.38414 24.072 1.25244 23.7405 1.25244H6.24051C5.90899 1.25244 5.59104 1.38414 5.35662 1.61856C5.1222 1.85298 4.99051 2.17092 4.99051 2.50244C4.99051 2.83396 5.1222 3.1519 5.35662 3.38632C5.59104 3.62075 5.90899 3.75244 6.24051 3.75244H7.49051V6.68119C7.49947 6.95052 7.52577 7.21899 7.56926 7.48494L7.56551 7.50244C7.56551 7.51994 7.57426 7.53494 7.57551 7.55244C7.75323 8.89406 8.36625 10.1403 9.32051 11.0999L10.1418 11.9212C10.8426 12.6259 11.2374 13.5785 11.2405 14.5724V15.8349C11.2385 16.646 10.9756 17.4349 10.4905 18.0849L8.74051 20.4199C8.3918 20.8935 8.11194 21.4141 7.90926 21.9662C7.89263 22.0005 7.87761 22.0355 7.86426 22.0712C7.62019 22.7438 7.49335 23.4532 7.48926 24.1687V26.2524H6.23926C5.90774 26.2524 5.58979 26.3841 5.35537 26.6186C5.12095 26.853 4.98926 27.1709 4.98926 27.5024C4.98926 27.834 5.12095 28.1519 5.35537 28.3863C5.58979 28.6207 5.90774 28.7524 6.23926 28.7524H23.7393C24.0708 28.7524 24.3887 28.6207 24.6231 28.3863C24.8576 28.1519 24.9893 27.834 24.9893 27.5024C24.9893 27.1709 24.8576 26.853 24.6231 26.6186C24.3887 26.3841 24.0708 26.2524 23.7393 26.2524H23.7405ZM9.99051 6.25244V3.75244H19.9905V6.25244H9.99051ZM11.088 9.33244C10.9118 9.15545 10.7539 8.96113 10.6168 8.75244H19.363C19.2258 8.96113 19.0679 9.15545 18.8918 9.33244L18.0705 10.1537C17.0954 11.123 16.4701 12.3889 16.293 13.7524H13.688C13.5109 12.3889 12.8857 11.123 11.9105 10.1537L11.088 9.33244ZM12.4905 19.5849C13.2136 18.6158 13.6424 17.4588 13.7255 16.2524H16.2543C16.3375 17.459 16.7667 18.616 17.4905 19.5849L18.7405 21.2524H11.2405L12.4905 19.5849ZM19.9905 26.2524H9.99051V24.1687C9.9939 24.0294 10.0052 23.8904 10.0243 23.7524H19.9555C19.975 23.8904 19.9867 24.0294 19.9905 24.1687V26.2524Z" fill="#222528"/>
</svg>
