<svg width="30" height="30" viewBox="0 0 30 30" fill="none" xmlns="http://www.w3.org/2000/svg">
<path d="M26.2505 5.51249L27.138 4.63749C27.3734 4.40211 27.5056 4.08286 27.5056 3.74999C27.5056 3.41711 27.3734 3.09787 27.138 2.86249C26.9026 2.62711 26.5834 2.49487 26.2505 2.49487C25.9176 2.49487 25.5984 2.62711 25.363 2.86249L23.613 4.62499L20.0755 8.16249L12.188 16.0375C10.8955 15.1848 9.33257 14.8422 7.80195 15.0761C6.27132 15.31 4.88201 16.1038 3.90322 17.3035C2.92443 18.5033 2.42585 20.0237 2.50408 21.5702C2.58232 23.1166 3.2318 24.5789 4.32668 25.6738C5.42156 26.7687 6.88389 27.4182 8.43031 27.4964C9.97673 27.5746 11.4971 27.076 12.6969 26.0973C13.8967 25.1185 14.6905 23.7292 14.9244 22.1985C15.1583 20.6679 14.8157 19.1049 13.963 17.8125L20.9505 10.8125L23.6005 13.475C23.717 13.5907 23.8552 13.6824 24.0072 13.7447C24.1592 13.807 24.3219 13.8388 24.4862 13.8382C24.6504 13.8376 24.8129 13.8047 24.9644 13.7413C25.116 13.6779 25.2535 13.5853 25.3692 13.4687C25.485 13.3522 25.5766 13.214 25.6389 13.062C25.7012 12.9101 25.733 12.7473 25.7324 12.5831C25.7319 12.4188 25.6989 12.2563 25.6355 12.1048C25.5721 11.9533 25.4795 11.8157 25.363 11.7L22.713 9.04999L24.488 7.28749L25.363 8.16249C25.4787 8.27904 25.6163 8.37165 25.7678 8.43504C25.9193 8.49843 26.0818 8.53135 26.2461 8.53193C26.4103 8.53251 26.5731 8.50074 26.725 8.43842C26.877 8.3761 27.0152 8.28446 27.1317 8.16874C27.2483 8.05301 27.3409 7.91546 27.4043 7.76394C27.4677 7.61242 27.5006 7.4499 27.5012 7.28566C27.5018 7.12141 27.47 6.95866 27.4077 6.8067C27.3454 6.65474 27.2537 6.51654 27.138 6.39999L26.2505 5.51249ZM8.75049 25C8.00881 25 7.28378 24.7801 6.6671 24.368C6.05041 23.9559 5.56977 23.3703 5.28594 22.685C5.00211 21.9998 4.92785 21.2458 5.07254 20.5184C5.21724 19.791 5.57439 19.1228 6.09884 18.5983C6.62328 18.0739 7.29147 17.7167 8.0189 17.572C8.74633 17.4273 9.50033 17.5016 10.1856 17.7854C10.8708 18.0693 11.4564 18.5499 11.8685 19.1666C12.2806 19.7833 12.5005 20.5083 12.5005 21.25C12.5005 22.2445 12.1054 23.1984 11.4021 23.9016C10.6989 24.6049 9.74505 25 8.75049 25Z" fill="#222528"/>
</svg>
