<svg width="30" height="30" viewBox="0 0 30 30" fill="none" xmlns="http://www.w3.org/2000/svg">
<path d="M18.7498 12.5H14.9998V8.75C14.9998 8.41848 14.8681 8.10054 14.6336 7.86612C14.3992 7.6317 14.0813 7.5 13.7498 7.5C13.4182 7.5 13.1003 7.6317 12.8659 7.86612C12.6315 8.10054 12.4998 8.41848 12.4998 8.75V12.5H8.74976C8.41824 12.5 8.1003 12.6317 7.86588 12.8661C7.63145 13.1005 7.49976 13.4185 7.49976 13.75C7.49976 14.0815 7.63145 14.3995 7.86588 14.6339C8.1003 14.8683 8.41824 15 8.74976 15H12.4998V18.75C12.4998 19.0815 12.6315 19.3995 12.8659 19.6339C13.1003 19.8683 13.4182 20 13.7498 20C14.0813 20 14.3992 19.8683 14.6336 19.6339C14.8681 19.3995 14.9998 19.0815 14.9998 18.75V15H18.7498C19.0813 15 19.3992 14.8683 19.6336 14.6339C19.8681 14.3995 19.9998 14.0815 19.9998 13.75C19.9998 13.4185 19.8681 13.1005 19.6336 12.8661C19.3992 12.6317 19.0813 12.5 18.7498 12.5ZM27.1373 25.3625L22.4998 20.7625C24.2999 18.518 25.1716 15.6691 24.9358 12.8016C24.6999 9.93413 23.3743 7.26598 21.2317 5.34581C19.089 3.42564 16.292 2.39939 13.4159 2.47809C10.5398 2.55679 7.80316 3.73445 5.76869 5.76893C3.73421 7.8034 2.55655 10.5401 2.47785 13.4162C2.39915 16.2923 3.42539 19.0892 5.34556 21.2319C7.26574 23.3746 9.93389 24.7001 12.8014 24.936C15.6689 25.1719 18.5178 24.3001 20.7623 22.5L25.3623 27.1C25.4785 27.2172 25.6167 27.3102 25.769 27.3736C25.9214 27.4371 26.0847 27.4697 26.2498 27.4697C26.4148 27.4697 26.5782 27.4371 26.7305 27.3736C26.8828 27.3102 27.0211 27.2172 27.1373 27.1C27.3626 26.8669 27.4885 26.5554 27.4885 26.2313C27.4885 25.9071 27.3626 25.5956 27.1373 25.3625ZM13.7498 22.5C12.0192 22.5 10.3274 21.9868 8.88852 21.0254C7.44959 20.0639 6.32808 18.6973 5.66581 17.0985C5.00355 15.4996 4.83027 13.7403 5.16789 12.043C5.50551 10.3456 6.33886 8.78653 7.56257 7.56282C8.78628 6.33911 10.3454 5.50575 12.0427 5.16813C13.7401 4.83051 15.4994 5.00379 17.0982 5.66606C18.6971 6.32832 20.0637 7.44983 21.0251 8.88876C21.9866 10.3277 22.4998 12.0194 22.4998 13.75C22.4998 16.0706 21.5779 18.2962 19.9369 19.9372C18.296 21.5781 16.0704 22.5 13.7498 22.5Z" fill="#222528"/>
</svg>
