<svg width="30" height="30" viewBox="0 0 30 30" fill="none" xmlns="http://www.w3.org/2000/svg">
<path d="M27.4998 12.0876C27.4209 11.8589 27.2773 11.6581 27.0865 11.5094C26.8957 11.3608 26.6658 11.2707 26.4248 11.2501L19.3123 10.2126L16.1248 3.75006C16.0225 3.53872 15.8627 3.36049 15.6637 3.23578C15.4647 3.11107 15.2347 3.04492 14.9998 3.04492C14.765 3.04492 14.535 3.11107 14.336 3.23578C14.137 3.36049 13.9772 3.53872 13.8748 3.75006L10.6873 10.2001L3.57485 11.2501C3.3435 11.2829 3.126 11.38 2.94704 11.5303C2.76807 11.6805 2.6348 11.8779 2.56235 12.1001C2.49603 12.3172 2.49008 12.5482 2.54513 12.7684C2.60019 12.9886 2.71417 13.1897 2.87485 13.3501L8.03735 18.3501L6.78735 25.4501C6.73688 25.6856 6.75554 25.9307 6.84108 26.1559C6.92662 26.381 7.0754 26.5767 7.26951 26.7193C7.46363 26.8619 7.69481 26.9454 7.93526 26.9597C8.17571 26.9741 8.41517 26.9186 8.62485 26.8001L14.9998 23.4626L21.3748 26.8001C21.5503 26.899 21.7484 26.9507 21.9498 26.9501C22.2146 26.951 22.4729 26.8678 22.6873 26.7126C22.8813 26.5736 23.0314 26.3821 23.12 26.1606C23.2086 25.9391 23.232 25.6969 23.1873 25.4626L21.9373 18.3626L27.0998 13.3626C27.2803 13.2097 27.4137 13.0087 27.4845 12.783C27.5553 12.5573 27.5606 12.3162 27.4998 12.0876ZM19.8123 17.0876C19.6677 17.2281 19.5591 17.4015 19.496 17.593C19.4329 17.7846 19.417 17.9886 19.4498 18.1876L20.3498 23.4376L15.6498 20.9376C15.4672 20.8472 15.2661 20.8002 15.0623 20.8002C14.8586 20.8002 14.6575 20.8472 14.4748 20.9376L9.77485 23.4376L10.6748 18.1876C10.7076 17.9886 10.6918 17.7846 10.6287 17.593C10.5656 17.4015 10.457 17.2281 10.3123 17.0876L6.56235 13.3376L11.8248 12.5751C12.0273 12.5469 12.2198 12.4695 12.3855 12.3496C12.5511 12.2298 12.6848 12.0711 12.7748 11.8876L14.9998 7.12506L17.3498 11.9001C17.4399 12.0836 17.5736 12.2423 17.7392 12.3621C17.9049 12.482 18.0974 12.5594 18.2998 12.5876L23.5623 13.3501L19.8123 17.0876Z" fill="#222528"/>
</svg>
