<svg width="30" height="30" viewBox="0 0 30 30" fill="none" xmlns="http://www.w3.org/2000/svg">
<path d="M18.8725 15.7925L16.25 14.2788V8.75C16.25 8.41848 16.1183 8.10054 15.8839 7.86612C15.6495 7.6317 15.3315 7.5 15 7.5C14.6685 7.5 14.3505 7.6317 14.1161 7.86612C13.8817 8.10054 13.75 8.41848 13.75 8.75V15C13.75 15.2194 13.8078 15.435 13.9175 15.625C14.0272 15.815 14.185 15.9728 14.375 16.0825L17.6225 17.9575C17.7647 18.0409 17.922 18.0953 18.0853 18.1176C18.2487 18.14 18.4148 18.1298 18.5742 18.0876C18.7336 18.0455 18.883 17.9722 19.014 17.8721C19.1449 17.772 19.2548 17.6469 19.3372 17.5042C19.4196 17.3614 19.473 17.2037 19.4943 17.0403C19.5155 16.8768 19.5042 16.7107 19.461 16.5516C19.4178 16.3925 19.3436 16.2436 19.2426 16.1133C19.1416 15.983 19.0158 15.874 18.8725 15.7925V15.7925ZM15 2.5C12.5277 2.5 10.111 3.23311 8.05538 4.60663C5.99976 5.98015 4.39761 7.93238 3.45151 10.2165C2.50542 12.5005 2.25787 15.0139 2.74019 17.4386C3.2225 19.8634 4.41301 22.0907 6.16117 23.8388C7.90933 25.587 10.1366 26.7775 12.5614 27.2598C14.9861 27.7421 17.4995 27.4946 19.7835 26.5485C22.0676 25.6024 24.0199 24.0002 25.3934 21.9446C26.7669 19.889 27.5 17.4723 27.5 15C27.4964 11.6859 26.1782 8.5086 23.8348 6.16518C21.4914 3.82177 18.3141 2.50364 15 2.5V2.5ZM15 25C13.0222 25 11.0888 24.4135 9.4443 23.3147C7.79981 22.2159 6.51809 20.6541 5.76121 18.8268C5.00433 16.9996 4.8063 14.9889 5.19215 13.0491C5.57801 11.1093 6.53041 9.32746 7.92894 7.92893C9.32746 6.53041 11.1093 5.578 13.0491 5.19215C14.9889 4.8063 16.9996 5.00433 18.8268 5.7612C20.6541 6.51808 22.2159 7.79981 23.3147 9.4443C24.4135 11.0888 25 13.0222 25 15C24.9967 17.6511 23.9421 20.1928 22.0674 22.0674C20.1928 23.9421 17.6512 24.9967 15 25Z" fill="#222528"/>
</svg>
