<svg width="140" height="140" viewBox="0 0 140 140" fill="none" xmlns="http://www.w3.org/2000/svg">
<g clip-path="url(#clip0_403_2098)">
<path d="M97.9283 137.641L104.026 140C104.026 120.37 88.6726 109.224 88.6726 109.224H50.3276C50.3276 109.224 35.4153 120.05 34.9844 139.155L44.6193 136.443L46.2043 140H92.7959L97.9283 137.641Z" fill="url(#paint0_linear_403_2098)"/>
<path d="M21.6367 74.565C21.6367 61.1808 27.161 49.0646 36.0464 40.37C35.0944 39.5565 34.2896 38.676 33.6093 37.7677C29.9286 32.8526 31.3013 25.8271 36.515 22.5831C38.8014 21.1603 41.5436 20.6805 44.1844 21.2089C53.5861 23.0899 68.5825 23.7079 79.3541 23.8978C96.0779 24.1924 110.581 35.5896 114.773 51.7822C116.367 57.9408 117.363 65.4397 117.363 74.565H21.6367Z" fill="url(#paint1_linear_403_2098)"/>
<path d="M29.896 84.9399C35.626 84.9399 40.2711 80.2949 40.2711 74.5649C40.2711 68.8349 35.626 64.1898 29.896 64.1898C24.1661 64.1898 19.521 68.8349 19.521 74.5649C19.521 80.2949 24.1661 84.9399 29.896 84.9399Z" fill="url(#paint2_linear_403_2098)"/>
<path d="M109.104 84.9399C114.834 84.9399 119.479 80.2949 119.479 74.5649C119.479 68.8349 114.834 64.1898 109.104 64.1898C103.374 64.1898 98.7285 68.8349 98.7285 74.5649C98.7285 80.2949 103.374 84.9399 109.104 84.9399Z" fill="url(#paint3_linear_403_2098)"/>
<path d="M109.103 74.5657C109.103 96.437 91.3737 114.169 69.5 114.169C47.6263 114.169 29.8965 96.437 29.8965 74.5657C29.8965 63.8035 34.1874 54.045 41.1531 46.9088C43.536 44.4677 47.1749 43.7338 50.3446 44.9949C73.5635 54.2333 77.6268 45.8549 95.9699 48.2031C98.3191 48.504 100.456 49.7492 101.826 51.6809C106.411 58.1441 109.103 66.0403 109.103 74.5657Z" fill="url(#paint4_linear_403_2098)"/>
<path d="M86.9767 34.5972C84.8726 33.9391 82.687 33.5326 80.4805 33.3892C79.18 33.3045 78.1944 32.1816 78.279 30.8812C78.3636 29.5807 79.4854 28.5967 80.787 28.6794C83.3673 28.8473 85.9237 29.3228 88.3857 30.0927C89.6295 30.4817 90.3224 31.8054 89.9334 33.0495C89.5456 34.2895 88.2238 34.9874 86.9767 34.5972V34.5972Z" fill="#F3CAC0"/>
<path d="M96.3893 39.6266C95.5765 38.9617 94.7252 38.3603 93.859 37.8392C92.7423 37.1672 92.3815 35.7172 93.0535 34.6004C93.7251 33.4834 95.1754 33.1229 96.2921 33.7949C97.3517 34.4326 98.3898 35.1655 99.3778 35.9734C100.386 36.7986 100.535 38.2854 99.7102 39.2943C98.8824 40.3062 97.3954 40.4497 96.3893 39.6266V39.6266Z" fill="#F3CAC0"/>
<path d="M42.4443 86.9086C44.9837 86.9086 47.0424 85.2543 47.0424 83.2135C47.0424 81.1727 44.9837 79.5183 42.4443 79.5183C39.9048 79.5183 37.8462 81.1727 37.8462 83.2135C37.8462 85.2543 39.9048 86.9086 42.4443 86.9086Z" fill="#FB99AC"/>
<path d="M96.5556 86.9086C99.0951 86.9086 101.154 85.2543 101.154 83.2135C101.154 81.1727 99.0951 79.5183 96.5556 79.5183C94.0162 79.5183 91.9575 81.1727 91.9575 83.2135C91.9575 85.2543 94.0162 86.9086 96.5556 86.9086Z" fill="#FB99AC"/>
<path d="M50.3274 83.2136C55.3631 83.2136 59.4454 79.1313 59.4454 74.0956C59.4454 69.0599 55.3631 64.9777 50.3274 64.9777C45.2917 64.9777 41.2095 69.0599 41.2095 74.0956C41.2095 79.1313 45.2917 83.2136 50.3274 83.2136Z" fill="white"/>
<path d="M88.6726 83.2136C93.7083 83.2136 97.7906 79.1313 97.7906 74.0956C97.7906 69.0599 93.7083 64.9777 88.6726 64.9777C83.6369 64.9777 79.5547 69.0599 79.5547 74.0956C79.5547 79.1313 83.6369 83.2136 88.6726 83.2136Z" fill="white"/>
<path d="M50.3272 79.5297C53.3285 79.5297 55.7614 77.0968 55.7614 74.0956C55.7614 71.0943 53.3285 68.6614 50.3272 68.6614C47.326 68.6614 44.8931 71.0943 44.8931 74.0956C44.8931 77.0968 47.326 79.5297 50.3272 79.5297Z" fill="#383842"/>
<path d="M88.672 79.5297C91.6732 79.5297 94.1061 77.0968 94.1061 74.0956C94.1061 71.0943 91.6732 68.6614 88.672 68.6614C85.6708 68.6614 83.2378 71.0943 83.2378 74.0956C83.2378 77.0968 85.6708 79.5297 88.672 79.5297Z" fill="#383842"/>
<path d="M69.4997 83.1468C67.9697 83.1468 66.4398 82.5682 65.1915 81.4109C64.7115 80.966 64.683 80.2159 65.128 79.7359C65.5732 79.2559 66.3234 79.2274 66.803 79.6726C68.3905 81.1447 70.6084 81.1447 72.1959 79.6726C72.6757 79.2279 73.4257 79.2559 73.8709 79.7359C74.3159 80.2159 74.2876 80.9657 73.8074 81.4109C72.5595 82.5682 71.0296 83.1468 69.4997 83.1468V83.1468Z" fill="#383842"/>
<path d="M69.4999 95.7456C64.9963 95.7456 61.4922 99.6591 61.9877 104.135L63.419 117.067H75.5807L77.012 104.135C77.5075 99.6591 74.0034 95.7456 69.4999 95.7456V95.7456Z" fill="url(#paint5_linear_403_2098)"/>
<path d="M62.2573 106.575L63.4186 117.067H75.5804L76.7417 106.575C74.3723 106.204 71.953 106.011 69.4995 106.011C67.046 106.011 64.6267 106.204 62.2573 106.575V106.575Z" fill="#D86743"/>
<path d="M34.9918 118.125C31.4137 115.391 26.2531 116.372 23.9288 120.229C21.6045 124.087 23.148 129.108 27.2373 130.994L39.053 136.442L45.3298 126.026L34.9918 118.125Z" fill="url(#paint6_linear_403_2098)"/>
<path d="M104.008 118.125C107.586 115.391 112.747 116.372 115.071 120.229C117.395 124.087 115.852 129.108 111.762 130.994L99.9468 136.442L93.6699 126.026L104.008 118.125Z" fill="url(#paint7_linear_403_2098)"/>
<path d="M27.9878 131.34L39.0531 136.443L45.33 126.026L36.726 119.45C33.2425 122.884 30.2798 126.883 27.9878 131.34Z" fill="#D86743"/>
<path d="M111.012 131.34C108.72 126.884 105.758 122.884 102.274 119.45L93.6699 126.026L99.9468 136.442L111.012 131.34Z" fill="#D86743"/>
<path d="M46.2044 140C50.7124 131.76 59.4643 126.16 69.5002 126.16C79.536 126.16 88.2877 131.761 92.7957 140H107.017C101.714 124.37 86.8993 113.091 69.4999 113.091C52.1006 113.091 37.2858 124.37 31.9829 140H46.2044Z" fill="url(#paint8_linear_403_2098)"/>
<path d="M44.6437 134.443C45.9519 133.907 46.5783 132.413 46.0429 131.104C45.5075 129.796 44.0129 129.17 42.7047 129.705C41.3965 130.241 40.77 131.735 41.3054 133.043C41.8409 134.352 43.3354 134.978 44.6437 134.443Z" fill="#EEDE2C"/>
<path d="M97.8154 132.98C98.3508 131.672 97.7243 130.178 96.4161 129.642C95.1079 129.107 93.6133 129.733 93.0779 131.041C92.5425 132.35 93.1689 133.844 94.4771 134.38C95.7854 134.915 97.2799 134.289 97.8154 132.98Z" fill="#EEDE2C"/>
<path d="M69.4999 122.184C70.9127 122.184 72.0579 121.038 72.0579 119.626C72.0579 118.213 70.9127 117.068 69.4999 117.068C68.0872 117.068 66.9419 118.213 66.9419 119.626C66.9419 121.038 68.0872 122.184 69.4999 122.184Z" fill="#EEDE2C"/>
</g>
<defs>
<linearGradient id="paint0_linear_403_2098" x1="69.5053" y1="109.224" x2="69.5053" y2="140" gradientUnits="userSpaceOnUse">
<stop stop-color="#78C5E6"/>
<stop offset="0.9788" stop-color="#BBE3F4"/>
</linearGradient>
<linearGradient id="paint1_linear_403_2098" x1="21.6367" y1="47.7824" x2="117.363" y2="47.7824" gradientUnits="userSpaceOnUse">
<stop stop-color="#D66743"/>
<stop offset="0.9788" stop-color="#E79580"/>
</linearGradient>
<linearGradient id="paint2_linear_403_2098" x1="19.521" y1="74.5649" x2="40.2711" y2="74.5649" gradientUnits="userSpaceOnUse">
<stop offset="0.0212" stop-color="#FDC8BB"/>
<stop offset="1" stop-color="#FDDACC"/>
</linearGradient>
<linearGradient id="paint3_linear_403_2098" x1="98.7285" y1="74.5649" x2="119.479" y2="74.5649" gradientUnits="userSpaceOnUse">
<stop offset="0.0212" stop-color="#FDC8BB"/>
<stop offset="1" stop-color="#FDDACC"/>
</linearGradient>
<linearGradient id="paint4_linear_403_2098" x1="29.8965" y1="79.2783" x2="109.104" y2="79.2783" gradientUnits="userSpaceOnUse">
<stop offset="0.0212" stop-color="#FDC8BB"/>
<stop offset="1" stop-color="#FDDACC"/>
</linearGradient>
<linearGradient id="paint5_linear_403_2098" x1="69.4999" y1="117.067" x2="69.4999" y2="95.7456" gradientUnits="userSpaceOnUse">
<stop stop-color="#D66743"/>
<stop offset="0.9788" stop-color="#E79580"/>
</linearGradient>
<linearGradient id="paint6_linear_403_2098" x1="34.0862" y1="136.442" x2="34.0862" y2="116.571" gradientUnits="userSpaceOnUse">
<stop stop-color="#D66743"/>
<stop offset="0.9788" stop-color="#E79580"/>
</linearGradient>
<linearGradient id="paint7_linear_403_2098" x1="104.914" y1="136.442" x2="104.914" y2="116.571" gradientUnits="userSpaceOnUse">
<stop stop-color="#D66743"/>
<stop offset="0.9788" stop-color="#E79580"/>
</linearGradient>
<linearGradient id="paint8_linear_403_2098" x1="69.4999" y1="140" x2="69.4999" y2="113.091" gradientUnits="userSpaceOnUse">
<stop stop-color="#D66743"/>
<stop offset="0.9788" stop-color="#E79580"/>
</linearGradient>
<clipPath id="clip0_403_2098">
<rect width="119" height="119" fill="white" transform="translate(10 21)"/>
</clipPath>
</defs>
</svg>
