<svg width="140" height="140" viewBox="0 0 140 140" fill="none" xmlns="http://www.w3.org/2000/svg">
<g clip-path="url(#clip0_403_2094)">
<path d="M101.895 62.9506C115.208 62.9506 126 52.1582 126 38.8451C126 25.532 115.208 14.7396 101.895 14.7396C88.5814 14.7396 77.7891 25.532 77.7891 38.8451C77.7891 52.1582 88.5814 62.9506 101.895 62.9506Z" fill="url(#paint0_linear_403_2094)"/>
<path d="M37.1055 62.9506C50.4185 62.9506 61.2109 52.1582 61.2109 38.8451C61.2109 25.532 50.4185 14.7396 37.1055 14.7396C23.7924 14.7396 13 25.532 13 38.8451C13 52.1582 23.7924 62.9506 37.1055 62.9506Z" fill="url(#paint1_linear_403_2094)"/>
<path d="M20.9694 41.7635C22.484 41.7635 23.7118 40.7769 23.7118 39.5598C23.7118 38.3427 22.484 37.3561 20.9694 37.3561C19.4549 37.3561 18.2271 38.3427 18.2271 39.5598C18.2271 40.7769 19.4549 41.7635 20.9694 41.7635Z" fill="#FD75BE"/>
<path d="M53.2414 41.7635C54.756 41.7635 55.9838 40.7769 55.9838 39.5598C55.9838 38.3427 54.756 37.3561 53.2414 37.3561C51.7268 37.3561 50.499 38.3427 50.499 39.5598C50.499 40.7769 51.7268 41.7635 53.2414 41.7635Z" fill="#FD75BE"/>
<path d="M25.6709 39.5599C28.6742 39.5599 31.1088 37.1252 31.1088 34.1219C31.1088 31.1186 28.6742 28.684 25.6709 28.684C22.6676 28.684 20.2329 31.1186 20.2329 34.1219C20.2329 37.1252 22.6676 39.5599 25.6709 39.5599Z" fill="white"/>
<path d="M48.5395 39.5599C51.5428 39.5599 53.9775 37.1252 53.9775 34.1219C53.9775 31.1186 51.5428 28.684 48.5395 28.684C45.5362 28.684 43.1016 31.1186 43.1016 34.1219C43.1016 37.1252 45.5362 39.5599 48.5395 39.5599Z" fill="white"/>
<path d="M27.4672 36.3483C26.8713 36.3483 26.2935 36.032 25.9862 35.4729C25.918 35.3491 25.8122 35.2863 25.6709 35.2863C25.5295 35.2863 25.4235 35.3491 25.3555 35.4729C24.9064 36.29 23.8795 36.5883 23.0629 36.1392C22.2457 35.6899 21.9475 34.6634 22.3966 33.8463C23.0529 32.6517 24.3077 31.9098 25.6709 31.9098C27.0341 31.9098 28.2888 32.6517 28.9452 33.8463C29.3942 34.6634 29.096 35.6899 28.2789 36.1392C28.0209 36.281 27.7422 36.3483 27.4672 36.3483V36.3483Z" fill="#383842"/>
<path d="M50.3366 36.3483C49.7407 36.3483 49.1629 36.0323 48.8556 35.4731C48.7874 35.3493 48.6814 35.2865 48.54 35.2865C48.3989 35.2865 48.2927 35.3493 48.2247 35.4731C47.7756 36.29 46.7489 36.5883 45.9318 36.1392C45.1147 35.6899 44.8167 34.6634 45.2657 33.8463C45.9226 32.6519 47.1771 31.9098 48.54 31.9098C49.9033 31.9098 51.1577 32.6517 51.8146 33.8463C52.2637 34.6632 51.9656 35.6899 51.1485 36.1392C50.8905 36.2808 50.6116 36.3483 50.3366 36.3483V36.3483Z" fill="#383842"/>
<path d="M39.2484 41.43H34.963C33.7681 41.43 32.7993 40.4614 32.7993 39.2663C32.7993 38.0715 33.7679 37.1027 34.963 37.1027H39.2484C40.4432 37.1027 41.4121 38.0713 41.4121 39.2663C41.4121 40.4614 40.4435 41.43 39.2484 41.43Z" fill="#383842"/>
<path d="M93.0571 56.2906C94.434 54.9141 94.5997 52.7227 93.4136 51.1786C89.541 46.1365 84.11 42.3508 77.8491 40.5426C78.1933 45.4892 80.0297 50.0242 82.9112 53.701L88.3129 56.8911C89.8462 57.7965 91.7979 57.5493 93.0571 56.2906V56.2906Z" fill="#8959C3"/>
<path d="M69.5 93.6056C82.8131 93.6056 93.6055 82.8132 93.6055 69.5001C93.6055 56.187 82.8131 45.3947 69.5 45.3947C56.1869 45.3947 45.3945 56.187 45.3945 69.5001C45.3945 82.8132 56.1869 93.6056 69.5 93.6056Z" fill="url(#paint2_linear_403_2094)"/>
<path d="M72.0031 54.3526C71.278 54.2214 70.5359 54.1419 69.7971 54.1163C68.564 54.0735 67.599 53.0389 67.642 51.8058C67.6848 50.5727 68.7103 49.6131 69.9524 49.6507C70.9053 49.6838 71.8631 49.7865 72.7986 49.9557C74.0128 50.1754 74.8189 51.3378 74.5992 52.552C74.379 53.7696 73.2139 54.5719 72.0031 54.3526V54.3526Z" fill="#ADEDE3"/>
<path d="M81.145 59.7198C80.2851 58.6762 79.2907 57.7852 78.1893 57.0717C77.1536 56.4009 76.858 55.0176 77.5286 53.982C78.1994 52.9465 79.5826 52.6505 80.6183 53.3215C82.1044 54.284 83.4419 55.4807 84.5933 56.8781C85.3778 57.8303 85.2421 59.2385 84.2899 60.023C83.342 60.8043 81.9331 60.6762 81.145 59.7198V59.7198Z" fill="#ADEDE3"/>
<path d="M60.3045 80.9392C59.0023 79.3698 56.6201 79.2854 55.1781 80.7274C54.1451 81.7604 53.8656 83.328 54.4778 84.6545L56.9976 90.1131C59.8287 91.834 63.0424 92.9881 66.4815 93.4178C65.4129 88.756 63.261 84.5025 60.3045 80.9392V80.9392Z" fill="#01AB8B"/>
<path d="M37.1055 124.261C50.4185 124.261 61.2109 113.468 61.2109 100.155C61.2109 86.8419 50.4185 76.0496 37.1055 76.0496C23.7924 76.0496 13 86.8419 13 100.155C13 113.468 23.7924 124.261 37.1055 124.261Z" fill="url(#paint3_linear_403_2094)"/>
<path d="M53.3402 76.0496C54.857 76.0496 56.0866 75.0614 56.0866 73.8425C56.0866 72.6235 54.857 71.6354 53.3402 71.6354C51.8234 71.6354 50.5938 72.6235 50.5938 73.8425C50.5938 75.0614 51.8234 76.0496 53.3402 76.0496Z" fill="#FB99AC"/>
<path d="M85.66 76.0496C87.1768 76.0496 88.4065 75.0614 88.4065 73.8425C88.4065 72.6235 87.1768 71.6354 85.66 71.6354C84.1432 71.6354 82.9136 72.6235 82.9136 73.8425C82.9136 75.0614 84.1432 76.0496 85.66 76.0496Z" fill="#FB99AC"/>
<path d="M58.0486 73.8424C61.0564 73.8424 63.4947 71.4041 63.4947 68.3964C63.4947 65.3886 61.0564 62.9503 58.0486 62.9503C55.0408 62.9503 52.6025 65.3886 52.6025 68.3964C52.6025 71.4041 55.0408 73.8424 58.0486 73.8424Z" fill="white"/>
<path d="M80.9514 73.8424C83.9592 73.8424 86.3975 71.4041 86.3975 68.3964C86.3975 65.3886 83.9592 62.9503 80.9514 62.9503C77.9437 62.9503 75.5054 65.3886 75.5054 68.3964C75.5054 71.4041 77.9437 73.8424 80.9514 73.8424Z" fill="white"/>
<path d="M58.0487 71.6423C59.8413 71.6423 61.2946 70.189 61.2946 68.3963C61.2946 66.6036 59.8413 65.1504 58.0487 65.1504C56.256 65.1504 54.8027 66.6036 54.8027 68.3963C54.8027 70.189 56.256 71.6423 58.0487 71.6423Z" fill="#383842"/>
<path d="M80.9515 71.6423C82.7442 71.6423 84.1974 70.189 84.1974 68.3963C84.1974 66.6036 82.7442 65.1504 80.9515 65.1504C79.1588 65.1504 77.7056 66.6036 77.7056 68.3963C77.7056 70.189 79.1588 71.6423 80.9515 71.6423Z" fill="#383842"/>
<path d="M69.5 74.223C68.4853 74.223 67.4708 73.8392 66.6431 73.0718C66.1872 72.6493 66.1602 71.9371 66.5827 71.4813C67.0057 71.0255 67.7175 70.9985 68.1733 71.4212C68.9668 72.1568 70.0331 72.1568 70.8265 71.4212C71.2826 70.9987 71.9944 71.0255 72.4171 71.4813C72.8396 71.9371 72.8128 72.6491 72.3568 73.0718C71.5293 73.8394 70.5148 74.223 69.5 74.223V74.223Z" fill="#383842"/>
<path d="M20.9694 105.445C22.484 105.445 23.7118 104.458 23.7118 103.241C23.7118 102.024 22.484 101.037 20.9694 101.037C19.4549 101.037 18.2271 102.024 18.2271 103.241C18.2271 104.458 19.4549 105.445 20.9694 105.445Z" fill="#FB99AC"/>
<path d="M53.2414 105.445C54.756 105.445 55.9838 104.458 55.9838 103.241C55.9838 102.024 54.756 101.037 53.2414 101.037C51.7268 101.037 50.499 102.024 50.499 103.241C50.499 104.458 51.7268 105.445 53.2414 105.445Z" fill="#FB99AC"/>
<path d="M37.1053 105.111C35.9215 105.111 34.7379 104.716 33.7502 103.924C32.8342 103.191 32.6863 101.853 33.4204 100.937C34.1542 100.021 35.4918 99.8736 36.4077 100.607C36.8183 100.936 37.392 100.936 37.8026 100.607C38.7183 99.8736 40.0559 100.021 40.7899 100.937C41.5237 101.853 41.3761 103.191 40.4602 103.924C39.4726 104.716 38.2891 105.111 37.1053 105.111Z" fill="#383842"/>
<path d="M31.0972 97.44C30.9153 94.6591 28.5999 92.4388 25.8141 92.3672C22.7457 92.2886 20.2334 94.7526 20.2334 97.8031C20.2334 97.958 20.2399 98.1113 20.2525 98.2628C20.33 99.1825 21.3278 99.7306 22.1526 99.3162C22.3255 99.2296 22.5078 99.1515 22.6944 99.0776L22.6899 99.076L25.6711 97.3779L28.6523 99.076L28.6478 99.0776C28.8342 99.1512 29.0163 99.2291 29.1888 99.3158C30.023 99.7347 31.0177 99.1686 31.092 98.238C31.1125 97.9771 31.1147 97.7106 31.0972 97.44V97.44Z" fill="white"/>
<path d="M25.6712 98.5315C26.7591 98.5315 27.7776 98.7303 28.6524 99.0763C28.8196 98.6853 28.9121 98.2556 28.9121 97.8034C28.9121 96.0134 27.4612 94.5624 25.6712 94.5624C23.8812 94.5624 22.4302 96.0134 22.4302 97.8034C22.4302 98.2556 22.5227 98.6853 22.6899 99.0763C23.5647 98.7301 24.5833 98.5315 25.6712 98.5315Z" fill="#383842"/>
<path d="M53.9658 97.44C53.7839 94.6591 51.4686 92.4388 48.6827 92.3672C45.6142 92.2886 43.1021 94.7526 43.1021 97.8031C43.1021 97.958 43.1086 98.1113 43.1214 98.2628C43.1988 99.1825 44.1965 99.7306 45.0215 99.3162C45.1944 99.2296 45.3767 99.1515 45.5635 99.0776L45.5588 99.076L48.54 97.5049L51.5212 99.076L51.5165 99.0776C51.7029 99.1512 51.885 99.2291 52.0574 99.3158C52.8916 99.7347 53.8863 99.1686 53.9604 98.238C53.9813 97.9771 53.9834 97.7106 53.9658 97.44V97.44Z" fill="white"/>
<path d="M48.5398 98.5315C49.6277 98.5315 50.6463 98.7303 51.521 99.0763C51.6883 98.6853 51.7808 98.2556 51.7808 97.8034C51.7808 96.0134 50.3298 94.5624 48.5398 94.5624C46.7498 94.5624 45.2988 96.0134 45.2988 97.8034C45.2988 98.2556 45.3913 98.6853 45.5586 99.0763C46.4333 98.7301 47.4519 98.5315 48.5398 98.5315Z" fill="#383842"/>
<path d="M101.895 124.261C115.208 124.261 126 113.468 126 100.155C126 86.8419 115.208 76.0496 101.895 76.0496C88.5814 76.0496 77.7891 86.8419 77.7891 100.155C77.7891 113.468 88.5814 124.261 101.895 124.261Z" fill="url(#paint4_linear_403_2094)"/>
<path d="M102.418 119.803C102.391 119.803 102.364 119.803 102.337 119.803C101.103 119.796 100.108 118.791 100.114 117.557C100.12 116.327 101.12 115.334 102.348 115.334C102.372 115.334 102.395 115.335 102.418 115.335C103.197 115.335 103.991 115.257 104.778 115.103C105.987 114.867 107.162 115.657 107.399 116.868C107.635 118.079 106.844 119.253 105.633 119.489C104.565 119.697 103.484 119.803 102.418 119.803V119.803Z" fill="#BDE5F6"/>
<path d="M110.01 115.463C109.321 114.439 109.593 113.051 110.617 112.362C111.789 111.573 112.877 110.631 113.851 109.562C114.682 108.649 116.095 108.583 117.007 109.414C117.919 110.244 117.985 111.657 117.155 112.57C115.94 113.904 114.58 115.081 113.111 116.069C112.097 116.753 110.705 116.495 110.01 115.463V115.463Z" fill="#BDE5F6"/>
<path d="M86.1208 104.874C87.6354 104.874 88.8632 103.887 88.8632 102.67C88.8632 101.453 87.6354 100.466 86.1208 100.466C84.6062 100.466 83.3784 101.453 83.3784 102.67C83.3784 103.887 84.6062 104.874 86.1208 104.874Z" fill="#FB99AC"/>
<path d="M118.392 104.874C119.907 104.874 121.135 103.887 121.135 102.67C121.135 101.453 119.907 100.466 118.392 100.466C116.878 100.466 115.65 101.453 115.65 102.67C115.65 103.887 116.878 104.874 118.392 104.874Z" fill="#FB99AC"/>
<path d="M90.8221 102.67C93.8215 102.67 96.2531 100.239 96.2531 97.2391C96.2531 94.2396 93.8215 91.8081 90.8221 91.8081C87.8226 91.8081 85.3911 94.2396 85.3911 97.2391C85.3911 100.239 87.8226 102.67 90.8221 102.67Z" fill="#CBCBCB"/>
<path d="M85.3911 97.505C85.5334 100.382 87.9104 102.67 90.8221 102.67C93.7337 102.67 96.1108 100.381 96.2531 97.505H85.3911Z" fill="white"/>
<path d="M87.5933 97.505C87.7319 99.1671 89.1239 100.473 90.8219 100.473C92.5198 100.473 93.9118 99.1671 94.0505 97.505H87.5933Z" fill="#383842"/>
<path d="M113.691 102.67C116.69 102.67 119.122 100.239 119.122 97.2391C119.122 94.2396 116.69 91.8081 113.691 91.8081C110.691 91.8081 108.26 94.2396 108.26 97.2391C108.26 100.239 110.691 102.67 113.691 102.67Z" fill="#CBCBCB"/>
<path d="M108.26 97.505C108.402 100.382 110.779 102.67 113.691 102.67C116.602 102.67 118.979 100.381 119.122 97.505H108.26Z" fill="white"/>
<path d="M110.462 97.505C110.601 99.1671 111.993 100.473 113.691 100.473C115.388 100.473 116.78 99.1671 116.919 97.505H110.462Z" fill="#383842"/>
<path d="M100.168 103.614C99.7144 103.614 99.2624 103.432 98.9297 103.073C98.2958 102.389 98.3361 101.321 99.02 100.687C100.896 98.9487 103.618 98.9489 105.493 100.687C106.177 101.321 106.217 102.39 105.583 103.073C104.95 103.757 103.881 103.797 103.197 103.163C102.626 102.634 101.887 102.633 101.315 103.163C100.991 103.465 100.579 103.614 100.168 103.614V103.614Z" fill="#383842"/>
<path d="M85.7585 41.6273C87.2731 41.6273 88.5009 40.6407 88.5009 39.4236C88.5009 38.2065 87.2731 37.2198 85.7585 37.2198C84.2439 37.2198 83.0161 38.2065 83.0161 39.4236C83.0161 40.6407 84.2439 41.6273 85.7585 41.6273Z" fill="#FB99AC"/>
<path d="M118.03 41.6273C119.545 41.6273 120.773 40.6407 120.773 39.4236C120.773 38.2065 119.545 37.2198 118.03 37.2198C116.516 37.2198 115.288 38.2065 115.288 39.4236C115.288 40.6407 116.516 41.6273 118.03 41.6273Z" fill="#FB99AC"/>
<path d="M90.4599 39.4238C93.4632 39.4238 95.8979 36.9891 95.8979 33.9858C95.8979 30.9825 93.4632 28.5479 90.4599 28.5479C87.4566 28.5479 85.022 30.9825 85.022 33.9858C85.022 36.9891 87.4566 39.4238 90.4599 39.4238Z" fill="white"/>
<path d="M90.5445 36.2831C91.81 35.0176 91.81 32.9658 90.5445 31.7003C89.279 30.4348 87.2273 30.4348 85.9618 31.7003C84.6963 32.9658 84.6963 35.0176 85.9618 36.2831C87.2273 37.5486 89.279 37.5486 90.5445 36.2831Z" fill="#383842"/>
<path d="M113.329 39.4238C116.332 39.4238 118.767 36.9891 118.767 33.9858C118.767 30.9825 116.332 28.5479 113.329 28.5479C110.326 28.5479 107.891 30.9825 107.891 33.9858C107.891 36.9891 110.326 39.4238 113.329 39.4238Z" fill="white"/>
<path d="M114.304 34.7608C114.716 33.0192 113.638 31.2736 111.896 30.8619C110.155 30.4502 108.409 31.5284 107.997 33.27C107.586 35.0116 108.664 36.7572 110.405 37.1689C112.147 37.5806 113.893 36.5025 114.304 34.7608Z" fill="#383842"/>
<path d="M103.288 35.3064H100.501C99.9489 35.3064 99.4622 35.6693 99.3064 36.1989C98.8157 37.8678 98.2523 41.2936 101.895 41.2936C105.537 41.2936 104.973 37.8678 104.483 36.1989C104.327 35.6693 103.84 35.3064 103.288 35.3064V35.3064Z" fill="#383842"/>
</g>
<defs>
<linearGradient id="paint0_linear_403_2094" x1="101.895" y1="62.9506" x2="101.895" y2="14.7396" gradientUnits="userSpaceOnUse">
<stop offset="0.0223" stop-color="#8959C3"/>
<stop offset="1" stop-color="#A27CCF"/>
</linearGradient>
<linearGradient id="paint1_linear_403_2094" x1="37.1055" y1="14.7396" x2="37.1055" y2="62.9506" gradientUnits="userSpaceOnUse">
<stop offset="0.0212" stop-color="#FFB1DB"/>
<stop offset="1" stop-color="#FD86C8"/>
</linearGradient>
<linearGradient id="paint2_linear_403_2094" x1="69.5" y1="93.6056" x2="69.5" y2="45.3947" gradientUnits="userSpaceOnUse">
<stop offset="0.0206" stop-color="#77E4D3"/>
<stop offset="1" stop-color="#01C2A0"/>
</linearGradient>
<linearGradient id="paint3_linear_403_2094" x1="37.1055" y1="124.261" x2="37.1055" y2="76.0496" gradientUnits="userSpaceOnUse">
<stop offset="0.0223" stop-color="#F7F0A9"/>
<stop offset="0.9994" stop-color="#F4E46A"/>
</linearGradient>
<linearGradient id="paint4_linear_403_2094" x1="101.895" y1="124.261" x2="101.895" y2="76.0496" gradientUnits="userSpaceOnUse">
<stop offset="0.000558036" stop-color="#5BD4FB"/>
<stop offset="0.9777" stop-color="#A2E4FD"/>
</linearGradient>
<clipPath id="clip0_403_2094">
<rect width="113" height="113" fill="white" transform="translate(13 13)"/>
</clipPath>
</defs>
</svg>
