<svg width="140" height="140" viewBox="0 0 140 140" fill="none" xmlns="http://www.w3.org/2000/svg">
<g clip-path="url(#clip0_403_2099)">
<path d="M93.341 104.754C90.5031 102.382 87.8495 98.8397 87.8495 93.888L71.1864 88.684L62.9355 93.888C67.2557 106.795 80.0138 113.411 86.6322 116.054C89.0307 117.012 91.7656 116.492 93.6487 114.724C96.566 111.984 96.4118 107.321 93.341 104.754V104.754Z" fill="url(#paint0_linear_403_2099)"/>
<path d="M87.8495 93.888L71.1864 88.684L62.9355 93.888C63.8213 96.534 65.0654 98.9114 66.5345 101.049H89.9949C88.7195 99.0931 87.8495 96.7216 87.8495 93.888Z" fill="#8959C3"/>
<path d="M113.884 63.7688C114.702 61.61 115.154 59.2707 115.154 56.8252C115.154 46.5709 107.279 38.1609 97.2479 37.3004C94.7831 29.2926 87.3272 23.472 78.511 23.472C74.0513 23.472 69.9417 24.964 66.6478 27.4723C63.3539 24.964 59.2441 23.472 54.7846 23.472C45.9682 23.472 38.5126 29.2928 36.0477 37.3004C26.0166 38.1609 18.1416 46.5709 18.1416 56.8252C18.1416 59.2707 18.5931 61.61 19.4114 63.7688C14.406 66.4826 11 71.7839 11 77.8649C11 86.701 18.187 93.888 27.0231 93.888H106.272C115.108 93.888 122.295 86.701 122.295 77.8649C122.295 71.7839 118.889 66.4826 113.884 63.7688V63.7688Z" fill="url(#paint1_linear_403_2099)"/>
<path d="M64.4535 43.3404C62.3838 43.3299 61.0919 42.8661 60.2871 42.3121C59.4416 41.73 59.0267 40.6854 59.2037 39.6742C60.0713 34.7166 62.802 30.4006 66.6476 27.472C65.6465 26.7097 64.5704 26.0417 63.4313 25.4808C59.2604 29.0608 56.3722 34.0948 55.5605 39.7887C55.4014 40.9052 54.747 41.9063 53.7703 42.4707C52.9417 42.9495 51.7217 43.3299 49.9348 43.34C48.9617 43.3456 48.1103 44.086 48.0722 45.0587C48.0322 46.0801 48.8486 46.9206 49.861 46.9206C53.7846 46.9206 55.9925 45.5864 57.1937 44.3601C58.3949 45.5862 60.6028 46.9206 64.5264 46.9206C65.5383 46.9206 66.3542 46.0808 66.3152 45.0601C66.2776 44.0879 65.4267 43.3454 64.4535 43.3404V43.3404Z" fill="#FD75BE"/>
<path d="M33.2281 78.7203C34.8178 83.7475 37.918 85.8658 40.3389 86.7586C41.7299 84.6821 42.6518 82.2661 42.9436 79.6607C43.0538 78.6758 43.9256 77.9577 44.9112 78.0619C45.9004 78.1662 46.6135 79.0571 46.5035 80.0455C45.8679 85.7563 42.7668 90.7316 38.2945 93.8877H27.0229C31.2216 93.8877 35.046 92.2616 37.9057 89.6089C35.1774 88.3196 31.6426 85.58 29.8143 79.7996C29.5165 78.8571 30.0388 77.851 30.9814 77.5529C31.9244 77.2556 32.9298 77.7779 33.2281 78.7203Z" fill="#FD75BE"/>
<path d="M18.4429 60.237C18.657 61.4567 18.9821 62.6377 19.4106 63.7688C21.6761 62.5404 24.2693 61.8418 27.0228 61.8418C30.7045 61.8418 34.0988 63.0923 36.8048 65.189C37.513 65.7376 38.5217 65.6624 39.1552 65.0289C39.9139 64.2702 39.8476 63.0102 38.9991 62.3535C37.3457 61.0733 35.4821 60.052 33.4691 59.3497C35.1356 58.0239 37.5191 56.9596 40.9282 56.6878C41.9138 56.6093 42.6491 55.7467 42.5706 54.7613C42.4918 53.7759 41.6357 53.0367 40.6438 53.1189C34.8188 53.5832 31.3516 56.0024 29.3186 58.3993C28.5652 58.3112 27.7994 58.2627 27.0223 58.2627C23.9451 58.2625 21.0344 58.9733 18.4429 60.237V60.237Z" fill="#FD75BE"/>
<path d="M125.91 48.1091H122.265C121.777 46.3433 121.076 44.666 120.191 43.1061L122.77 40.5277C123.976 39.3209 123.976 37.3645 122.77 36.1577L118.75 32.1384C117.544 30.9316 115.587 30.9316 114.38 32.1384L111.802 34.7168C110.242 33.8323 108.565 33.1313 106.799 32.6429V28.9978C106.799 27.2913 105.416 25.9077 103.709 25.9077H98.0247C96.3181 25.9077 94.9346 27.291 94.9346 28.9978V32.6426C93.1688 33.1311 91.4914 33.832 89.9316 34.7166L87.3532 32.1382C86.1464 30.9314 84.19 30.9314 82.9832 32.1382L78.9639 36.1575C77.7571 37.3643 77.7571 39.3207 78.9639 40.5275L81.5423 43.1059C80.6577 44.6657 79.9568 46.3431 79.4683 48.1089H75.8235C74.117 48.1089 72.7334 49.4922 72.7334 51.199V56.8832C72.7334 58.5897 74.1167 59.9733 75.8235 59.9733H79.4683C79.9568 61.739 80.6577 63.4164 81.5423 64.9763L78.9639 67.5547C77.7571 68.7615 77.7571 70.7179 78.9639 71.9246L82.9832 75.9439C84.19 77.1507 86.1464 77.1507 87.3532 75.9439L89.9316 73.3656C91.4914 74.2501 93.1688 74.951 94.9346 75.4395V79.0843C94.9346 80.7909 96.3179 82.1744 98.0247 82.1744H103.709C105.415 82.1744 106.799 80.7911 106.799 79.0843V75.4395C108.565 74.951 110.242 74.2501 111.802 73.3656L114.38 75.9439C115.587 77.1507 117.544 77.1507 118.75 75.9439L122.77 71.9246C123.976 70.7179 123.976 68.7615 122.77 67.5547L120.191 64.9763C121.076 63.4164 121.777 61.739 122.265 59.9733H125.91C127.617 59.9733 129 58.5899 129 56.8832V51.199C129 49.4924 127.617 48.1091 125.91 48.1091V48.1091ZM100.867 65.1815C94.7141 65.1815 89.7263 60.1938 89.7263 54.0411C89.7263 47.8884 94.7141 42.9007 100.867 42.9007C107.019 42.9007 112.007 47.8884 112.007 54.0411C112.007 60.1938 107.019 65.1815 100.867 65.1815Z" fill="url(#paint2_radial_403_2099)"/>
<path d="M116.214 49.0783C115.335 49.0783 114.493 48.5835 114.09 47.7373C113.503 46.5042 112.757 45.3639 111.872 44.3482C111.02 43.3692 111.122 41.8846 112.101 41.032C113.081 40.1797 114.565 40.2822 115.418 41.2612C116.583 42.5989 117.564 44.0981 118.335 45.7172C118.893 46.8895 118.395 48.2921 117.223 48.8499C116.896 49.0048 116.552 49.0783 116.214 49.0783V49.0783Z" fill="#C7C5CB"/>
<path d="M106.496 40.3253C106.238 40.3253 105.975 40.2823 105.718 40.192C105.053 39.9588 104.36 39.7722 103.659 39.6375C102.385 39.3926 101.55 38.1601 101.795 36.8854C102.04 35.6104 103.273 34.7762 104.547 35.0207C105.474 35.1989 106.392 35.4464 107.274 35.7559C108.499 36.1856 109.144 37.5271 108.714 38.7523C108.375 39.7198 107.466 40.3253 106.496 40.3253V40.3253Z" fill="#C7C5CB"/>
</g>
<defs>
<linearGradient id="paint0_linear_403_2099" x1="79.3394" y1="88.684" x2="79.3394" y2="116.528" gradientUnits="userSpaceOnUse">
<stop offset="0.0223" stop-color="#8959C3"/>
<stop offset="1" stop-color="#A27CCF"/>
</linearGradient>
<linearGradient id="paint1_linear_403_2099" x1="31.6634" y1="105.155" x2="101.632" y2="35.187" gradientUnits="userSpaceOnUse">
<stop stop-color="#FD86C8"/>
<stop offset="0.9788" stop-color="#FFB1DB"/>
</linearGradient>
<radialGradient id="paint2_radial_403_2099" cx="0" cy="0" r="1" gradientUnits="userSpaceOnUse" gradientTransform="translate(100.867 54.0411) scale(28.1334)">
<stop offset="0.0223" stop-color="#C1BFC5"/>
<stop offset="1" stop-color="#8D889D"/>
</radialGradient>
<clipPath id="clip0_403_2099">
<rect width="118" height="118" fill="white" transform="translate(11 11)"/>
</clipPath>
</defs>
</svg>
