<svg width="24" height="24" viewBox="0 0 24 24" xmlns="http://www.w3.org/2000/svg">
<path fill-rule="evenodd" clip-rule="evenodd" d="M14.7072 10.7071L20.0001 5.41421V9H22.0001V2H15.0001V4H18.5858L13.293 9.29289L14.7072 10.7071ZM10.4793 6.25529C11.0653 6.90482 10.8795 7.64067 10.3614 8.33888C10.2386 8.50442 10.097 8.66752 9.92596 8.84725C9.84388 8.93352 9.77988 8.9984 9.646 9.1324L8.87923 9.8996C8.77878 10 9.4646 11.3705 10.7956 12.7028C12.1259 14.0344 13.4963 14.7207 13.5972 14.6197L14.3634 13.853C14.7854 13.4307 15.0089 13.2269 15.3159 13.0254C15.9543 12.6066 16.6506 12.4928 17.2378 13.0179C19.1552 14.3894 20.2402 15.2311 20.7718 15.7834C21.8086 16.8607 21.6727 18.519 20.7777 19.465C20.4673 19.793 20.0738 20.1868 19.609 20.6348C16.7975 23.4479 10.8638 21.736 6.31627 17.184C1.76773 12.631 0.0566986 6.69675 2.86235 3.88959C3.36604 3.37798 3.53212 3.21199 4.02267 2.72863C4.936 1.82869 6.67077 1.68778 7.72533 2.72952C8.28003 3.27747 9.16437 4.41531 10.4793 6.25529ZM15.777 15.2671L15.0106 16.0339C13.7079 17.3373 11.4894 16.2263 9.38186 14.1167C7.2729 12.0057 6.16309 9.78798 7.46624 8.48494L8.23226 7.71849C8.35484 7.59579 8.41091 7.53896 8.47821 7.46822C8.56991 7.37185 8.64526 7.28721 8.70559 7.21231C7.54022 5.58897 6.74802 4.57462 6.32096 4.15274C6.1004 3.93487 5.60654 3.97499 5.42524 4.15363C4.94168 4.6301 4.78274 4.78896 4.28108 5.29846C2.47677 7.10377 3.85803 11.8943 7.73001 15.7701C11.6008 19.6447 16.3906 21.0266 18.2086 19.2078C18.6662 18.7664 19.0391 18.3934 19.3261 18.09C19.5334 17.8708 19.5705 17.4185 19.3319 17.1707C18.9346 16.7578 17.9618 15.9994 16.2822 14.7932C16.1597 14.8917 16.0092 15.0346 15.777 15.2671Z"/>
</svg>
