<svg width="24" height="24" viewBox="0 0 24 24" xmlns="http://www.w3.org/2000/svg">
<path fill-rule="evenodd" clip-rule="evenodd" d="M13.4221 13.4221C13.8121 13.0322 14.4443 13.0322 14.8343 13.4221L18.7075 17.2954C19.0975 17.6854 19.0975 18.3176 18.7075 18.7075C18.3176 19.0975 17.6854 19.0975 17.2954 18.7075L13.4221 14.8343C13.0322 14.4443 13.0322 13.8121 13.4221 13.4221ZM6.70457 18.7075C6.31463 19.0975 5.6824 19.0975 5.29246 18.7075C4.90251 18.3176 4.90251 17.6854 5.29246 17.2954L10.5879 12L5.29246 6.70457C4.90251 6.31463 4.90251 5.6824 5.29246 5.29246C5.6824 4.90251 6.31463 4.90251 6.70457 5.29246L12 10.5879L17.2954 5.29246C17.6854 4.90251 18.3176 4.90251 18.7075 5.29246C19.0975 5.6824 19.0975 6.31463 18.7075 6.70457L6.70457 18.7075Z"/>
</svg>
