<svg width="16" height="16" viewBox="0 0 16 16" xmlns="http://www.w3.org/2000/svg">
<path fill-rule="evenodd" clip-rule="evenodd" d="M7.14238 5.25367C7.53096 4.73001 7.6703 4.17812 7.23083 3.69098C6.24461 2.31099 5.58136 1.45761 5.16533 1.04665C4.37441 0.265347 3.07334 0.37103 2.38834 1.04598C2.02043 1.4085 1.89587 1.53299 1.5181 1.9167C-0.586138 4.02207 0.697135 8.47274 4.10854 11.8875C7.51918 15.3015 11.9694 16.5854 14.0781 14.4756C14.4267 14.1396 14.7218 13.8443 14.9546 13.5982C15.6259 12.8887 15.7278 11.645 14.9502 10.8371C14.5515 10.4228 13.7377 9.79159 12.2997 8.76295C11.8593 8.36912 11.337 8.45447 10.8583 8.76857C10.628 8.91966 10.4604 9.0725 10.1439 9.38929L9.56923 9.96429C9.49353 10.04 8.46574 9.5253 7.46803 8.52662C6.46979 7.52739 5.95542 6.49954 6.03076 6.42421L6.60584 5.84881C6.70625 5.74831 6.75425 5.69965 6.81581 5.63495C6.94407 5.50015 7.05026 5.37782 7.14238 5.25367ZM10.6293 11.0249L11.2041 10.4498C11.3783 10.2755 11.4912 10.1683 11.583 10.0944C12.8427 10.999 13.5723 11.5679 13.8703 11.8775C14.0492 12.0634 14.0214 12.4026 13.8659 12.567C13.6506 12.7945 13.371 13.0743 13.0278 13.4053C11.6643 14.7694 8.07192 13.733 5.16885 10.8271C2.26486 7.92023 1.22891 4.32734 2.58215 2.97336C2.95839 2.59123 3.0776 2.47208 3.44027 2.11473C3.57625 1.98075 3.94664 1.95066 4.11206 2.11407C4.43236 2.43047 5.02651 3.19124 5.90053 4.40874C5.85528 4.46492 5.79877 4.5284 5.73 4.60068C5.67952 4.65373 5.63747 4.69635 5.54553 4.78838L4.97102 5.36321C3.99366 6.34049 4.82601 8.00378 6.40773 9.58705C7.98836 11.1692 9.65227 12.0025 10.6293 11.0249Z"/>
</svg>
