<svg width="16" height="16" viewBox="0 0 16 16" xmlns="http://www.w3.org/2000/svg">
<path fill-rule="evenodd" clip-rule="evenodd" d="M8.00002 15.3333C3.94993 15.3333 0.666687 12.0501 0.666687 8C0.666687 3.94991 3.94993 0.666664 8.00002 0.666664C12.0501 0.666664 15.3334 3.94991 15.3334 8C15.3334 12.0501 12.0501 15.3333 8.00002 15.3333ZM8 14C11.3137 14 14 11.3137 14 8C14 4.68629 11.3137 2 8 2C4.68629 2 2 4.68629 2 8C2 11.3137 4.68629 14 8 14ZM11.3333 7.33333H8.66667V4H7.33333V8.66666H11.3333V7.33333Z"/>
</svg>
