<svg width="140" height="140" viewBox="0 0 140 140" fill="none" xmlns="http://www.w3.org/2000/svg">
<g clip-path="url(#clip0_403_2100)">
<path d="M12 70V112.352C12 120.994 19.006 128 27.6482 128H70L75.2403 98.7916L70 70L41 63.8851L12 70Z" fill="url(#paint0_radial_403_2100)"/>
<path d="M112.352 12H70.0001L67.1641 41L70.0001 70L99.0001 75.2339L128 70V27.6482C128 19.006 120.994 12 112.352 12V12Z" fill="url(#paint1_linear_403_2100)"/>
<path d="M27.6482 12C19.006 12 12 19.006 12 27.6482V70H70V12H27.6482Z" fill="url(#paint2_linear_403_2100)"/>
<path d="M20.6916 49.2307C22.5977 49.2307 24.1429 47.989 24.1429 46.4571C24.1429 44.9253 22.5977 43.6835 20.6916 43.6835C18.7855 43.6835 17.2402 44.9253 17.2402 46.4571C17.2402 47.989 18.7855 49.2307 20.6916 49.2307Z" fill="#FB99AC"/>
<path d="M61.3083 49.2307C63.2144 49.2307 64.7596 47.989 64.7596 46.4571C64.7596 44.9253 63.2144 43.6835 61.3083 43.6835C59.4022 43.6835 57.8569 44.9253 57.8569 46.4571C57.8569 47.989 59.4022 49.2307 61.3083 49.2307Z" fill="#FB99AC"/>
<path d="M26.6086 46.4571C30.3885 46.4571 33.4526 43.3929 33.4526 39.6131C33.4526 35.8333 30.3885 32.7691 26.6086 32.7691C22.8288 32.7691 19.7646 35.8333 19.7646 39.6131C19.7646 43.3929 22.8288 46.4571 26.6086 46.4571Z" fill="white"/>
<path d="M55.3914 46.4571C59.1712 46.4571 62.2354 43.3929 62.2354 39.6131C62.2354 35.8333 59.1712 32.7691 55.3914 32.7691C51.6115 32.7691 48.5474 35.8333 48.5474 39.6131C48.5474 43.3929 51.6115 46.4571 55.3914 46.4571Z" fill="white"/>
<path d="M26.6087 43.6921C28.8615 43.6921 30.6877 41.8659 30.6877 39.6131C30.6877 37.3604 28.8615 35.5342 26.6087 35.5342C24.356 35.5342 22.5298 37.3604 22.5298 39.6131C22.5298 41.8659 24.356 43.6921 26.6087 43.6921Z" fill="#383842"/>
<path d="M55.391 43.6921C57.6437 43.6921 59.4699 41.8659 59.4699 39.6131C59.4699 37.3604 57.6437 35.5342 55.391 35.5342C53.1382 35.5342 51.312 37.3604 51.312 39.6131C51.312 41.8659 53.1382 43.6921 55.391 43.6921Z" fill="#383842"/>
<path d="M40.9999 46.6751C39.7874 46.6751 38.5747 46.2166 37.5857 45.2995C37.1178 44.8655 37.0901 44.1346 37.5238 43.6667C37.958 43.1988 38.6887 43.1713 39.1566 43.6048C40.242 44.6111 41.7576 44.6111 42.8429 43.6048C43.3104 43.1715 44.0418 43.1988 44.4757 43.6667C44.9095 44.1346 44.882 44.8655 44.4138 45.2995C43.425 46.2164 42.2123 46.6751 40.9999 46.6751Z" fill="#383842"/>
<path d="M70 70V128H112.352C120.994 128 128 120.994 128 112.352V70H70Z" fill="url(#paint3_linear_403_2100)"/>
<path d="M112.352 123.378C111.076 123.378 110.041 122.344 110.041 121.068C110.041 119.792 111.076 118.757 112.352 118.757C113.041 118.757 113.731 118.642 114.401 118.416C115.61 118.007 116.922 118.657 117.33 119.866C117.738 121.075 117.089 122.386 115.88 122.795C114.732 123.182 113.545 123.378 112.352 123.378V123.378Z" fill="#FDB0BF"/>
<path d="M119.728 117.535C118.531 117.092 117.92 115.762 118.363 114.565C118.549 114.064 118.67 113.537 118.725 112.998C118.853 111.728 119.985 110.805 121.256 110.931C122.526 111.06 123.451 112.193 123.323 113.463C123.229 114.391 123.018 115.302 122.697 116.17C122.256 117.361 120.93 117.98 119.728 117.535Z" fill="#FDB0BF"/>
<path d="M78.6916 49.2307C80.5977 49.2307 82.1429 47.9889 82.1429 46.4571C82.1429 44.9253 80.5977 43.6835 78.6916 43.6835C76.7855 43.6835 75.2402 44.9253 75.2402 46.4571C75.2402 47.9889 76.7855 49.2307 78.6916 49.2307Z" fill="#FB99AC"/>
<path d="M119.308 49.2307C121.214 49.2307 122.76 47.9889 122.76 46.4571C122.76 44.9253 121.214 43.6835 119.308 43.6835C117.402 43.6835 115.857 44.9253 115.857 46.4571C115.857 47.9889 117.402 49.2307 119.308 49.2307Z" fill="#FB99AC"/>
<path d="M84.6087 46.4571C88.3836 46.4571 91.4439 43.3968 91.4439 39.6218C91.4439 35.8469 88.3836 32.7866 84.6087 32.7866C80.8337 32.7866 77.7734 35.8469 77.7734 39.6218C77.7734 43.3968 80.8337 46.4571 84.6087 46.4571Z" fill="#D6D5D8"/>
<path d="M77.7734 39.9565C77.9523 43.5767 80.944 46.4571 84.6087 46.4571C88.2733 46.4571 91.265 43.5767 91.4439 39.9565H77.7734Z" fill="white"/>
<path d="M80.5449 39.9565C80.7194 42.0484 82.4714 43.6921 84.6086 43.6921C86.7456 43.6921 88.4976 42.0484 88.6721 39.9565H80.5449Z" fill="#383842"/>
<path d="M113.391 46.4571C117.166 46.4571 120.226 43.3968 120.226 39.6218C120.226 35.8469 117.166 32.7866 113.391 32.7866C109.616 32.7866 106.556 35.8469 106.556 39.6218C106.556 43.3968 109.616 46.4571 113.391 46.4571Z" fill="#D6D5D8"/>
<path d="M106.556 39.9565C106.735 43.5767 109.726 46.4571 113.391 46.4571C117.056 46.4571 120.047 43.5767 120.226 39.9565H106.556Z" fill="white"/>
<path d="M109.327 39.9565C109.502 42.0484 111.254 43.6921 113.391 43.6921C115.528 43.6921 117.28 42.0484 117.454 39.9565H109.327Z" fill="#383842"/>
<path d="M101.628 47.2533C101.207 47.2533 100.784 47.1004 100.45 46.7912C99.5825 45.987 98.4168 45.987 97.5493 46.7912C96.8468 47.4417 95.7506 47.4003 95.0999 46.6987C94.4492 45.9967 94.4906 44.9003 95.1923 44.2493C97.3984 42.2043 100.6 42.2043 102.807 44.2493C103.508 44.9001 103.55 45.9967 102.899 46.6987C102.558 47.0668 102.094 47.2533 101.628 47.2533V47.2533Z" fill="#383842"/>
<path d="M78.6916 107.231C80.5977 107.231 82.1429 105.989 82.1429 104.457C82.1429 102.925 80.5977 101.684 78.6916 101.684C76.7855 101.684 75.2402 102.925 75.2402 104.457C75.2402 105.989 76.7855 107.231 78.6916 107.231Z" fill="#FB99AC"/>
<path d="M119.308 107.231C121.214 107.231 122.76 105.989 122.76 104.457C122.76 102.925 121.214 101.684 119.308 101.684C117.402 101.684 115.857 102.925 115.857 104.457C115.857 105.989 117.402 107.231 119.308 107.231Z" fill="#FB99AC"/>
<path d="M84.6087 104.457C88.3885 104.457 91.4527 101.393 91.4527 97.6131C91.4527 93.8333 88.3885 90.7691 84.6087 90.7691C80.8288 90.7691 77.7646 93.8333 77.7646 97.6131C77.7646 101.393 80.8288 104.457 84.6087 104.457Z" fill="white"/>
<path d="M113.391 104.457C117.171 104.457 120.235 101.393 120.235 97.6131C120.235 93.8333 117.171 90.7691 113.391 90.7691C109.612 90.7691 106.547 93.8333 106.547 97.6131C106.547 101.393 109.612 104.457 113.391 104.457Z" fill="white"/>
<path d="M86.8698 100.023C86.2581 100.024 85.6649 99.6991 85.3495 99.1251C85.1323 98.7297 84.7591 98.687 84.6089 98.687C84.459 98.6872 84.086 98.7299 83.8688 99.1249C83.4078 99.9639 82.3536 100.27 81.5153 99.8088C80.6765 99.3478 80.3703 98.2941 80.8313 97.4553C81.5885 96.0772 83.0362 95.2211 84.6089 95.2208C86.1816 95.2208 87.6291 96.077 88.387 97.4551C88.848 98.2939 88.5421 99.3474 87.7033 99.8088C87.4382 99.9544 87.1521 100.023 86.8698 100.023V100.023Z" fill="#383842"/>
<path d="M111.13 100.023C110.848 100.023 110.562 99.9544 110.297 99.8088C109.458 99.3476 109.152 98.2939 109.613 97.4551C110.371 96.077 111.818 95.2208 113.391 95.2208H113.391C114.964 95.2211 116.411 96.0772 117.169 97.4553C117.63 98.2941 117.324 99.3476 116.485 99.8088C115.647 100.27 114.593 99.9641 114.131 99.1249C113.914 98.7299 113.541 98.6872 113.391 98.687C113.241 98.687 112.868 98.7297 112.651 99.1251C112.335 99.6988 111.742 100.023 111.13 100.023V100.023Z" fill="#383842"/>
<path d="M101.697 106.811H96.3031C94.7992 106.811 93.5801 105.592 93.5801 104.088C93.5801 102.584 94.7992 101.365 96.3031 101.365H101.697C103.201 101.365 104.42 102.584 104.42 104.088C104.42 105.592 103.201 106.811 101.697 106.811Z" fill="#383842"/>
<path d="M20.6916 107.231C22.5977 107.231 24.1429 105.989 24.1429 104.457C24.1429 102.925 22.5977 101.684 20.6916 101.684C18.7855 101.684 17.2402 102.925 17.2402 104.457C17.2402 105.989 18.7855 107.231 20.6916 107.231Z" fill="#FB99AC"/>
<path d="M61.3083 107.231C63.2144 107.231 64.7596 105.989 64.7596 104.457C64.7596 102.925 63.2144 101.684 61.3083 101.684C59.4022 101.684 57.8569 102.925 57.8569 104.457C57.8569 105.989 59.4022 107.231 61.3083 107.231Z" fill="#FB99AC"/>
<path d="M26.6086 104.457C30.3885 104.457 33.4526 101.393 33.4526 97.6131C33.4526 93.8333 30.3885 90.7691 26.6086 90.7691C22.8288 90.7691 19.7646 93.8333 19.7646 97.6131C19.7646 101.393 22.8288 104.457 26.6086 104.457Z" fill="white"/>
<path d="M33.3255 98.5768C33.8436 96.3849 32.4868 94.188 30.2948 93.6698C28.1029 93.1517 25.906 94.5086 25.3879 96.7005C24.8697 98.8924 26.2266 101.089 28.4185 101.607C30.6104 102.126 32.8074 100.769 33.3255 98.5768Z" fill="#383842"/>
<path d="M55.3914 104.457C59.1712 104.457 62.2354 101.393 62.2354 97.6131C62.2354 93.8333 59.1712 90.7691 55.3914 90.7691C51.6115 90.7691 48.5474 93.8333 48.5474 97.6131C48.5474 101.393 51.6115 104.457 55.3914 104.457Z" fill="white"/>
<path d="M61.0113 100.493C62.604 98.9001 62.604 96.3179 61.0113 94.7252C59.4186 93.1325 56.8364 93.1325 55.2437 94.7252C53.651 96.3179 53.651 98.9001 55.2437 100.493C56.8364 102.086 59.4186 102.086 61.0113 100.493Z" fill="#383842"/>
<path d="M40.9997 106.811C42.6909 106.811 44.0619 105.016 44.0619 102.801C44.0619 100.587 42.6909 98.7916 40.9997 98.7916C39.3085 98.7916 37.9375 100.587 37.9375 102.801C37.9375 105.016 39.3085 106.811 40.9997 106.811Z" fill="#383842"/>
<path d="M121.068 29.9589C119.792 29.9589 118.758 28.9253 118.757 27.6496C118.757 27.0744 118.681 26.5062 118.532 25.9606C118.195 24.7295 118.92 23.4588 120.151 23.1221C121.382 22.7861 122.653 23.5105 122.989 24.7417C123.247 25.6834 123.378 26.6608 123.378 27.6468C123.379 28.923 122.345 29.958 121.069 29.9589C121.069 29.9589 121.068 29.9589 121.068 29.9589Z" fill="#D3C1E7"/>
<path d="M115.099 21.865C114.242 21.4588 113.292 21.2439 112.35 21.2432C111.074 21.2423 110.04 20.2068 110.041 18.9306C110.042 17.6551 111.076 16.6217 112.352 16.6217H112.354C113.974 16.6229 115.608 16.9919 117.079 17.6886C118.232 18.2351 118.724 19.613 118.177 20.7663C117.633 21.9138 116.259 22.4138 115.099 21.865V21.865Z" fill="#D3C1E7"/>
</g>
<defs>
<radialGradient id="paint0_radial_403_2100" cx="0" cy="0" r="1" gradientUnits="userSpaceOnUse" gradientTransform="translate(43.6202 95.9427) scale(31.8397)">
<stop offset="0.0223" stop-color="#F7F0A9"/>
<stop offset="0.9994" stop-color="#F4E46A"/>
</radialGradient>
<linearGradient id="paint1_linear_403_2100" x1="67.1641" y1="43.6169" x2="128" y2="43.6169" gradientUnits="userSpaceOnUse">
<stop stop-color="#A27CCF"/>
<stop offset="0.9777" stop-color="#8959C3"/>
</linearGradient>
<linearGradient id="paint2_linear_403_2100" x1="12" y1="41" x2="70" y2="41" gradientUnits="userSpaceOnUse">
<stop offset="0.0206" stop-color="#77E4D3"/>
<stop offset="1" stop-color="#01C2A0"/>
</linearGradient>
<linearGradient id="paint3_linear_403_2100" x1="99" y1="128" x2="99" y2="70" gradientUnits="userSpaceOnUse">
<stop stop-color="#FD869C"/>
<stop offset="0.9788" stop-color="#F3385D"/>
</linearGradient>
<clipPath id="clip0_403_2100">
<rect width="116" height="116" fill="white" transform="translate(12 12)"/>
</clipPath>
</defs>
</svg>
