<svg width="131" height="131" viewBox="0 0 131 131" fill="none" xmlns="http://www.w3.org/2000/svg">
<path d="M89.6738 54.0604C89.4285 50.9633 88.0536 48.0644 85.8106 45.9148C83.4377 43.685 80.3217 42.4151 77.0661 42.3511C69.2032 41.8964 61.3183 41.9865 53.4678 42.6206C50.9986 42.9008 48.6776 43.942 46.8265 45.6C44.9753 47.258 43.6856 49.4506 43.1361 51.8742C42.1583 60.7778 42.0781 69.7572 42.8965 78.6768C43.1852 81.2014 44.2692 83.5688 45.9919 85.4368C47.7145 87.3048 49.9866 88.5766 52.4796 89.0684C61.2583 89.9679 70.1028 90.0281 78.8929 89.2481C81.4241 88.9732 83.8019 87.8989 85.6812 86.1811C87.5605 84.4633 88.8437 82.1914 89.3444 79.695C90.4225 75.5324 90.0631 57.8037 89.6738 54.0604ZM85.2716 78.018C85.0622 79.9183 84.1863 81.683 82.7992 82.9988C81.4122 84.3146 79.6037 85.0963 77.695 85.2052C69.4944 85.7915 61.2585 85.6713 53.0785 84.8459C51.5046 84.4828 50.0826 83.6391 49.0095 82.4318C47.9363 81.2246 47.2652 79.7134 47.0891 78.1078C46.48 70.1336 46.48 62.1245 47.0891 54.1502C47.3042 52.2521 48.1819 50.4907 49.5678 49.176C50.9537 47.8613 52.7589 47.0776 54.6657 46.9629C62.4826 46.4235 70.3273 46.4235 78.1442 46.9629C80.0494 47.1732 81.8179 48.0534 83.1344 49.4466C84.4508 50.8399 85.2294 52.6554 85.3315 54.5695C85.8593 62.3375 85.8393 70.133 85.2716 77.8982V78.018ZM66.3151 53.701C63.8926 53.701 61.5245 54.4194 59.5103 55.7652C57.4961 57.1111 55.9262 59.024 54.9991 61.2621C54.0721 63.5002 53.8295 65.9629 54.3021 68.3388C54.7747 70.7148 55.9413 72.8972 57.6542 74.6102C59.3672 76.3231 61.5496 77.4897 63.9256 77.9623C66.3015 78.4349 68.7643 78.1923 71.0023 77.2653C73.2404 76.3382 75.1534 74.7683 76.4992 72.7541C77.8451 70.7399 78.5634 68.3718 78.5634 65.9493C78.5714 64.3386 78.26 62.7423 77.6473 61.2527C77.0345 59.7631 76.1326 58.4097 74.9937 57.2708C73.8547 56.1318 72.5013 55.2299 71.0117 54.6172C69.5221 54.0044 67.9258 53.693 66.3151 53.701V53.701ZM66.3151 73.8553C64.7469 73.8435 63.2173 73.3672 61.9195 72.4867C60.6217 71.6062 59.6139 70.3609 59.0233 68.9081C58.4327 67.4552 58.2858 65.86 58.6012 64.3237C58.9166 62.7875 59.6801 61.3791 60.7953 60.2764C61.9105 59.1738 63.3274 58.4262 64.8671 58.1282C66.4068 57.8302 68.0003 57.9951 69.4464 58.6021C70.8925 59.2091 72.1263 60.2308 72.9921 61.5385C73.8579 62.8461 74.3168 64.3811 74.311 65.9493C74.3076 67.012 74.0908 68.0633 73.6734 69.0406C73.256 70.0179 72.6467 70.9015 71.8814 71.6388C71.1161 72.3762 70.2105 72.9523 69.2183 73.3331C68.2261 73.7138 67.1676 73.8914 66.1055 73.8553H66.3151ZM81.9774 53.2219C81.9766 53.8204 81.7966 54.4049 81.4604 54.9001C81.1242 55.3953 80.6474 55.7784 80.0914 56C79.5354 56.2216 78.9258 56.2715 78.3412 56.1433C77.7566 56.0151 77.2238 55.7146 76.8115 55.2807C76.3993 54.8467 76.1266 54.2993 76.0285 53.7088C75.9304 53.1184 76.0115 52.5122 76.2613 51.9683C76.5111 51.4244 76.9181 50.9678 77.4299 50.6574C77.9416 50.3471 78.5347 50.1972 79.1324 50.2272C79.8629 50.3154 80.5353 50.6695 81.0213 51.2218C81.5074 51.7742 81.7731 52.4861 81.7678 53.2219H81.9774Z" fill="url(#paint0_linear_488_19)"/>
<defs>
<linearGradient id="paint0_linear_488_19" x1="42.3276" y1="65.9194" x2="90.0631" y2="65.9194" gradientUnits="userSpaceOnUse">
<stop stop-color="#B27F2A"/>
<stop offset="0.06" stop-color="#B7862E"/>
<stop offset="0.14" stop-color="#C49939"/>
<stop offset="0.24" stop-color="#DAB84C"/>
<stop offset="0.33" stop-color="#F4DD62"/>
<stop offset="0.52" stop-color="#F4E38B"/>
<stop offset="0.66" stop-color="#F4DD62"/>
<stop offset="1" stop-color="#B27F2A"/>
</linearGradient>
</defs>
</svg>
