<svg width="131" height="131" viewBox="0 0 131 131" fill="none" xmlns="http://www.w3.org/2000/svg">
<path fill-rule="evenodd" clip-rule="evenodd" d="M57.6013 78.6965C55.4277 78.6471 53.3233 77.9231 51.5795 76.6246C49.8357 75.3262 48.5388 73.5176 47.8685 71.4493C49.3477 71.7788 50.8813 71.7788 52.3605 71.4493V71.4493C50.9923 71.1452 49.699 70.5698 48.557 69.7571C47.4151 68.9443 46.4478 67.9108 45.7123 66.7177C44.6809 65.0453 44.1509 63.1121 44.185 61.1476C45.6186 61.9361 47.2211 62.3675 48.8567 62.4053C46.6793 60.9115 45.1418 58.6548 44.5484 56.0817C43.955 53.5086 44.349 50.8065 45.6524 48.5099C48.2895 51.7303 51.5689 54.3656 55.2814 56.2476C58.9939 58.1296 63.0579 59.2171 67.2142 59.4406C67.2142 59.0213 67.2142 58.662 67.0645 58.2727C66.7419 55.6068 67.4577 52.9191 69.0635 50.7668C70.6693 48.6146 73.0419 47.163 75.6893 46.7131C77.3173 46.4497 78.9849 46.5846 80.5494 47.1061C82.114 47.6276 83.529 48.5203 84.6734 49.7078C84.7599 49.7577 84.858 49.784 84.9579 49.784C85.0577 49.784 85.1558 49.7577 85.2423 49.7078C87.3502 49.2522 89.372 48.4637 91.2317 47.3719C90.4421 49.7413 88.8544 51.7631 86.7397 53.0918C88.8048 52.8682 90.8242 52.333 92.7291 51.5046V51.5046C92.3398 52.0137 91.9505 52.5528 91.5312 53.0619C90.4221 54.426 89.1441 55.6436 87.7279 56.6855C87.6727 56.7208 87.6272 56.7695 87.5958 56.8271C87.5644 56.8847 87.548 56.9493 87.5483 57.0149C87.6086 58.5645 87.5486 60.1164 87.3686 61.6567C86.9538 64.8812 86.0447 68.0225 84.6734 70.9702C83.2613 74.0129 81.348 76.7968 79.0134 79.2056C75.1316 83.2514 70.1234 86.0372 64.6388 87.2015C62.8392 87.5179 61.0156 87.6782 59.1884 87.6806C53.2844 87.8935 47.4525 86.3285 42.4481 83.1886H42.2085C45.7579 83.6082 49.3557 83.1134 52.66 81.7511C54.4446 80.9743 56.1086 79.9456 57.6013 78.6965V78.6965Z" fill="url(#paint0_linear_488_18)"/>
<defs>
<linearGradient id="paint0_linear_488_18" x1="42.1785" y1="67.107" x2="93.0585" y2="67.107" gradientUnits="userSpaceOnUse">
<stop stop-color="#B27F2A"/>
<stop offset="0.06" stop-color="#B7862E"/>
<stop offset="0.14" stop-color="#C49939"/>
<stop offset="0.24" stop-color="#DAB84C"/>
<stop offset="0.33" stop-color="#F4DD62"/>
<stop offset="0.52" stop-color="#F4E38B"/>
<stop offset="0.66" stop-color="#F4DD62"/>
<stop offset="1" stop-color="#B27F2A"/>
</linearGradient>
</defs>
</svg>
