<svg width="30" height="30" viewBox="0 0 30 30" fill="none" xmlns="http://www.w3.org/2000/svg">
<path d="M14.1121 11.4624L8.81213 16.7624C8.69497 16.8786 8.60198 17.0168 8.53852 17.1692C8.47506 17.3215 8.44238 17.4849 8.44238 17.6499C8.44238 17.8149 8.47506 17.9783 8.53852 18.1306C8.60198 18.2829 8.69497 18.4212 8.81213 18.5374C9.04633 18.7702 9.36315 18.9009 9.69338 18.9009C10.0236 18.9009 10.3404 18.7702 10.5746 18.5374L14.9996 14.1124L19.4246 18.5374C19.6588 18.7702 19.9756 18.9009 20.3059 18.9009C20.6361 18.9009 20.9529 18.7702 21.1871 18.5374C21.303 18.4206 21.3946 18.2821 21.4568 18.1298C21.519 17.9775 21.5506 17.8144 21.5496 17.6499C21.5506 17.4854 21.519 17.3223 21.4568 17.17C21.3946 17.0177 21.303 16.8792 21.1871 16.7624L15.8871 11.4624C15.7709 11.3452 15.6327 11.2522 15.4804 11.1888C15.328 11.1253 15.1646 11.0926 14.9996 11.0926C14.8346 11.0926 14.6712 11.1253 14.5189 11.1888C14.3666 11.2522 14.2283 11.3452 14.1121 11.4624Z" fill="#222528"/>
</svg>
