<svg width="30" height="30" viewBox="0 0 30 30" fill="none" xmlns="http://www.w3.org/2000/svg">
<path d="M14.9996 15.8875L10.5746 11.4625C10.3404 11.2297 10.0236 11.099 9.69338 11.099C9.36315 11.099 9.04633 11.2297 8.81213 11.4625C8.69497 11.5787 8.60198 11.7169 8.53852 11.8693C8.47506 12.0216 8.44238 12.185 8.44238 12.35C8.44238 12.515 8.47506 12.6784 8.53852 12.8307C8.60198 12.983 8.69497 13.1213 8.81213 13.2375L14.1121 18.5375C14.2283 18.6546 14.3666 18.7476 14.5189 18.8111C14.6712 18.8746 14.8346 18.9072 14.9996 18.9072C15.1646 18.9072 15.328 18.8746 15.4804 18.8111C15.6327 18.7476 15.7709 18.6546 15.8871 18.5375L21.2496 13.2375C21.3655 13.1207 21.4571 12.9822 21.5193 12.8299C21.5815 12.6776 21.6131 12.5145 21.6121 12.35C21.6131 12.1855 21.5815 12.0224 21.5193 11.8701C21.4571 11.7178 21.3655 11.5793 21.2496 11.4625C21.0154 11.2297 20.6986 11.099 20.3684 11.099C20.0381 11.099 19.7213 11.2297 19.4871 11.4625L14.9996 15.8875Z" fill="#222528"/>
</svg>
