<svg width="30" height="30" viewBox="0 0 30 30" fill="none" xmlns="http://www.w3.org/2000/svg">
<path d="M18.5371 14.1124L13.2371 8.81237C13.1209 8.69521 12.9827 8.60222 12.8303 8.53876C12.678 8.4753 12.5146 8.44263 12.3496 8.44263C12.1846 8.44263 12.0212 8.4753 11.8689 8.53876C11.7166 8.60222 11.5783 8.69521 11.4621 8.81237C11.2293 9.04658 11.0986 9.36339 11.0986 9.69362C11.0986 10.0239 11.2293 10.3407 11.4621 10.5749L15.8871 14.9999L11.4621 19.4249C11.2293 19.6591 11.0986 19.9759 11.0986 20.3061C11.0986 20.6364 11.2293 20.9532 11.4621 21.1874C11.5789 21.3032 11.7174 21.3949 11.8697 21.4571C12.022 21.5193 12.1851 21.5508 12.3496 21.5499C12.5141 21.5508 12.6772 21.5193 12.8295 21.4571C12.9818 21.3949 13.1203 21.3032 13.2371 21.1874L18.5371 15.8874C18.6543 15.7712 18.7473 15.6329 18.8107 15.4806C18.8742 15.3283 18.9069 15.1649 18.9069 14.9999C18.9069 14.8349 18.8742 14.6715 18.8107 14.5192C18.7473 14.3668 18.6543 14.2286 18.5371 14.1124Z" fill="#222528"/>
</svg>
