<svg width="30" height="30" viewBox="0 0 30 30" fill="none" xmlns="http://www.w3.org/2000/svg">
<path d="M15.0004 2.5C12.91 2.50214 10.8536 3.02846 9.01927 4.03079C7.18493 5.03313 5.63124 6.47948 4.50037 8.2375C2.90983 10.7319 2.25555 13.7097 2.6539 16.6411C3.05225 19.5726 4.4774 22.2677 6.67591 24.2473C8.87441 26.2268 11.7038 27.3625 14.6608 27.4522C17.6178 27.542 20.5108 26.5801 22.8254 24.7375C24.8398 23.1161 26.3018 20.9098 27.0099 18.4227C27.7179 15.9356 27.6372 13.2901 26.7789 10.8508C25.9205 8.41154 24.3268 6.29848 22.2173 4.80285C20.1077 3.30722 17.5863 2.50265 15.0004 2.5ZM17.5004 5.325C19.2277 5.77211 20.8039 6.67322 22.0655 7.93486C23.3272 9.1965 24.2283 10.7727 24.6754 12.5C22.5854 12.5589 20.5454 13.1528 18.7504 14.225C17.849 13.2025 16.8436 12.2767 15.7504 11.4625C16.8518 9.6012 17.4545 7.48728 17.5004 5.325ZM15.0004 5C14.9963 6.79378 14.5036 8.55257 13.5754 10.0875C13.3879 9.9875 13.2129 9.875 13.0254 9.7875C11.4158 8.93824 9.69479 8.31967 7.91287 7.95C8.84168 7.01565 9.94596 6.27404 11.1623 5.76779C12.3786 5.26153 13.6829 5.0006 15.0004 5ZM6.25037 10.2C8.21089 10.4724 10.1096 11.0813 11.8629 12L12.0254 12.1C11.1028 13.0217 10.0073 13.7524 8.80184 14.25C7.59636 14.7476 6.30453 15.0025 5.00037 15C5.00732 13.3204 5.43721 11.6696 6.25037 10.2ZM12.5004 24.675C10.7731 24.2279 9.19687 23.3268 7.93523 22.0651C6.67359 20.8035 5.77249 19.2273 5.32537 17.5C6.99494 17.4629 8.63973 17.0883 10.1607 16.3987C11.6816 15.7092 13.0473 14.7189 14.1754 13.4875C15.079 14.1555 15.9162 14.909 16.6754 15.7375C15.4096 16.8661 14.3867 18.2405 13.6689 19.777C12.9512 21.3135 12.5536 22.98 12.5004 24.675ZM15.0004 25C15.0031 23.6267 15.2886 22.2687 15.8391 21.0106C16.3897 19.7525 17.1935 18.6213 18.2004 17.6875C18.2754 17.7875 18.3504 17.875 18.4129 17.975C19.4604 19.579 20.2374 21.3442 20.7129 23.2C19.0399 24.3747 17.0446 25.0034 15.0004 25ZM22.7629 21.25C22.22 19.5963 21.4636 18.0204 20.5129 16.5625L20.2504 16.25C21.7038 15.4414 23.3372 15.0116 25.0004 15C24.988 17.2773 24.1986 19.4822 22.7629 21.25Z" fill="#222528"/>
</svg>
