<svg width="30" height="30" viewBox="0 0 30 30" fill="none" xmlns="http://www.w3.org/2000/svg">
<path d="M23.3876 9.01257C23.2714 8.89541 23.1331 8.80242 22.9808 8.73896C22.8285 8.67549 22.6651 8.64282 22.5001 8.64282C22.335 8.64282 22.1717 8.67549 22.0193 8.73896C21.867 8.80242 21.7288 8.89541 21.6126 9.01257L12.3001 18.3376L8.38756 14.4126C8.26691 14.296 8.12448 14.2044 7.96841 14.1429C7.81234 14.0814 7.64569 14.0512 7.47796 14.0541C7.31024 14.057 7.14472 14.0929 6.99088 14.1598C6.83703 14.2267 6.69786 14.3232 6.58131 14.4438C6.46476 14.5645 6.37312 14.7069 6.31161 14.863C6.25011 15.019 6.21995 15.1857 6.22285 15.3534C6.22575 15.5211 6.26166 15.6867 6.32853 15.8405C6.39539 15.9944 6.49191 16.1335 6.61256 16.2501L11.4126 21.0501C11.5288 21.1672 11.667 21.2602 11.8193 21.3237C11.9717 21.3871 12.135 21.4198 12.3001 21.4198C12.4651 21.4198 12.6285 21.3871 12.7808 21.3237C12.9331 21.2602 13.0714 21.1672 13.1876 21.0501L23.3876 10.8501C23.5144 10.733 23.6157 10.591 23.685 10.4328C23.7542 10.2747 23.79 10.1039 23.79 9.93132C23.79 9.75869 23.7542 9.58794 23.685 9.42981C23.6157 9.27169 23.5144 9.12962 23.3876 9.01257Z" fill="#FFFFFF"/>
</svg>
