<svg width="30" height="30" viewBox="0 0 30 30" fill="none" xmlns="http://www.w3.org/2000/svg">
<path d="M12.5 12.5C12.5 12.2528 12.4267 12.0111 12.2893 11.8055C12.152 11.6 11.9568 11.4398 11.7284 11.3452C11.5 11.2505 11.2486 11.2258 11.0061 11.274C10.7637 11.3223 10.5409 11.4413 10.3661 11.6161C10.1913 11.7909 10.0723 12.0137 10.024 12.2561C9.97579 12.4986 10.0005 12.7499 10.0952 12.9784C10.1898 13.2068 10.35 13.402 10.5555 13.5393C10.7611 13.6767 11.0028 13.75 11.25 13.75C11.5815 13.75 11.8995 13.6183 12.1339 13.3839C12.3683 13.1495 12.5 12.8315 12.5 12.5ZM18.125 17.575C17.9831 17.4918 17.8261 17.4375 17.6632 17.4151C17.5002 17.3927 17.3344 17.4027 17.1753 17.4445C17.0163 17.4863 16.867 17.5591 16.7361 17.6587C16.6052 17.7583 16.4952 17.8828 16.4125 18.025C16.2706 18.2745 16.0651 18.4819 15.817 18.6263C15.5689 18.7706 15.287 18.8466 15 18.8466C14.713 18.8466 14.4311 18.7706 14.183 18.6263C13.9349 18.4819 13.7294 18.2745 13.5875 18.025C13.5048 17.8828 13.3948 17.7583 13.2639 17.6587C13.133 17.5591 12.9838 17.4863 12.8247 17.4445C12.6656 17.4027 12.4998 17.3927 12.3368 17.4151C12.1739 17.4375 12.0169 17.4918 11.875 17.575C11.5891 17.7399 11.38 18.0112 11.2934 18.3297C11.2067 18.6482 11.2495 18.988 11.4125 19.275C11.7751 19.906 12.2976 20.4302 12.9275 20.7948C13.5574 21.1593 14.2723 21.3513 15 21.3513C15.7278 21.3513 16.4426 21.1593 17.0725 20.7948C17.7024 20.4302 18.2249 19.906 18.5875 19.275C18.7505 18.988 18.7933 18.6482 18.7067 18.3297C18.62 18.0112 18.4109 17.7399 18.125 17.575ZM18.75 11.25C18.5028 11.25 18.2611 11.3233 18.0555 11.4607C17.85 11.598 17.6898 11.7932 17.5952 12.0216C17.5005 12.2501 17.4758 12.5014 17.524 12.7439C17.5723 12.9863 17.6913 13.2091 17.8661 13.3839C18.0409 13.5587 18.2637 13.6778 18.5061 13.726C18.7486 13.7742 19 13.7495 19.2284 13.6549C19.4568 13.5602 19.652 13.4 19.7893 13.1945C19.9267 12.9889 20 12.7472 20 12.5C20 12.1685 19.8683 11.8505 19.6339 11.6161C19.3995 11.3817 19.0815 11.25 18.75 11.25ZM15 2.5C12.5277 2.5 10.111 3.23311 8.05538 4.60663C5.99976 5.98015 4.39761 7.93238 3.45151 10.2165C2.50542 12.5005 2.25787 15.0139 2.74019 17.4386C3.2225 19.8634 4.41301 22.0907 6.16117 23.8388C7.90933 25.587 10.1366 26.7775 12.5614 27.2598C14.9861 27.7421 17.4995 27.4946 19.7836 26.5485C22.0676 25.6024 24.0199 24.0002 25.3934 21.9446C26.7669 19.889 27.5 17.4723 27.5 15C27.5 13.3585 27.1767 11.733 26.5485 10.2165C25.9203 8.69989 24.9996 7.3219 23.8388 6.16117C22.6781 5.00043 21.3001 4.07969 19.7836 3.45151C18.267 2.82332 16.6415 2.5 15 2.5ZM15 25C12.6716 25.0101 10.4128 24.2073 8.6129 22.7302C6.81304 21.2531 5.58503 19.1942 5.14065 16.9086C4.69627 14.623 5.06338 12.254 6.17867 10.2101C7.29395 8.16624 9.0875 6.57559 11.25 5.7125C11.2371 5.89144 11.2371 6.07106 11.25 6.25C11.25 7.24456 11.6451 8.19839 12.3484 8.90165C13.0516 9.60491 14.0054 10 15 10C15.3315 10 15.6495 9.8683 15.8839 9.63388C16.1183 9.39946 16.25 9.08152 16.25 8.75C16.25 8.41848 16.1183 8.10054 15.8839 7.86612C15.6495 7.6317 15.3315 7.5 15 7.5C14.6685 7.5 14.3505 7.3683 14.1161 7.13388C13.8817 6.89946 13.75 6.58152 13.75 6.25C13.75 5.91848 13.8817 5.60054 14.1161 5.36612C14.3505 5.1317 14.6685 5 15 5C17.6522 5 20.1957 6.05357 22.0711 7.92893C23.9464 9.8043 25 12.3478 25 15C25 17.6522 23.9464 20.1957 22.0711 22.0711C20.1957 23.9464 17.6522 25 15 25Z" fill="black"/>
</svg>
