<svg width="30" height="30" viewBox="0 0 30 30" fill="none" xmlns="http://www.w3.org/2000/svg">
<path d="M21.3624 3.52515C20.2128 2.57963 18.8666 1.90268 17.422 1.5437C15.9774 1.18472 14.4709 1.15276 13.0124 1.45015C11.0704 1.84242 9.28866 2.80274 7.89328 4.20925C6.4979 5.61576 5.55177 7.40506 5.17493 9.35015C4.89974 10.8085 4.94974 12.3097 5.32138 13.7466C5.69302 15.1834 6.37713 16.5206 7.32493 17.6626C8.20453 18.6552 8.70872 19.9245 8.74993 21.2501V25.0001C8.74993 25.9947 9.14501 26.9485 9.84828 27.6518C10.5515 28.3551 11.5054 28.7501 12.4999 28.7501H17.4999C18.4945 28.7501 19.4483 28.3551 20.1516 27.6518C20.8548 26.9485 21.2499 25.9947 21.2499 25.0001V21.4876C21.2919 20.0241 21.8296 18.6182 22.7749 17.5001C24.4313 15.4511 25.2121 12.8312 24.9476 10.2097C24.6831 7.58819 23.3947 5.17701 21.3624 3.50015V3.52515ZM18.7499 25.0001C18.7499 25.3317 18.6182 25.6496 18.3838 25.884C18.1494 26.1185 17.8314 26.2501 17.4999 26.2501H12.4999C12.1684 26.2501 11.8505 26.1185 11.616 25.884C11.3816 25.6496 11.2499 25.3317 11.2499 25.0001V23.7501H18.7499V25.0001ZM20.8374 15.9501C19.5806 17.4409 18.8473 19.3027 18.7499 21.2501H16.2499V17.5001C16.2499 17.1686 16.1182 16.8507 15.8838 16.6163C15.6494 16.3818 15.3314 16.2501 14.9999 16.2501C14.6684 16.2501 14.3505 16.3818 14.116 16.6163C13.8816 16.8507 13.7499 17.1686 13.7499 17.5001V21.2501H11.2499C11.2169 19.3353 10.5086 17.4936 9.24993 16.0501C8.41948 15.0551 7.86104 13.8619 7.62906 12.5868C7.39709 11.3117 7.49949 9.99829 7.92629 8.77456C8.35308 7.55083 9.0897 6.45858 10.0643 5.6043C11.039 4.75003 12.2183 4.1629 13.4874 3.90015C14.5781 3.67558 15.7051 3.6967 16.7866 3.96198C17.8681 4.22727 18.877 4.73005 19.74 5.43384C20.603 6.13762 21.2984 7.02474 21.7758 8.03079C22.2532 9.03684 22.5005 10.1366 22.4999 11.2501C22.5092 12.9625 21.9213 14.6245 20.8374 15.9501Z" fill="#222528"/>
</svg>
