<svg width="24" height="24" viewBox="0 0 24 24" fill="none" xmlns="http://www.w3.org/2000/svg">
<path d="M9.74414 1.5C8.51367 1.5 7.5 2.51367 7.5 3.74414V4.5H3V6H4.5V18.75C4.5 19.9863 5.51367 21 6.75 21H15.75C16.9863 21 18 19.9863 18 18.75V6H19.5V4.5H15V3.74414C15 2.51367 13.9863 1.5 12.7559 1.5H9.74414ZM9.74414 3H12.7559C13.1777 3 13.5 3.32227 13.5 3.74414V4.5H9V3.74414C9 3.32227 9.32227 3 9.74414 3ZM6 6H16.5V18.75C16.5 19.1719 16.1719 19.5 15.75 19.5H6.75C6.32812 19.5 6 19.1719 6 18.75V6ZM7.5 7.5V18H9V7.5H7.5ZM10.5 7.5V18H12V7.5H10.5ZM13.5 7.5V18H15V7.5H13.5Z" fill="black"/>
</svg>
