<svg width="30" height="30" viewBox="0 0 30 30" fill="none" xmlns="http://www.w3.org/2000/svg">
<path d="M11.25 13.75C11.4972 13.75 11.7389 13.6767 11.9445 13.5393C12.15 13.402 12.3102 13.2068 12.4049 12.9784C12.4995 12.7499 12.5242 12.4986 12.476 12.2561C12.4278 12.0137 12.3087 11.7909 12.1339 11.6161C11.9591 11.4413 11.7363 11.3222 11.4939 11.274C11.2514 11.2258 11.0001 11.2505 10.7717 11.3451C10.5432 11.4398 10.348 11.6 10.2107 11.8055C10.0733 12.0111 10 12.2528 10 12.5C10 12.8315 10.1317 13.1495 10.3661 13.3839C10.6005 13.6183 10.9185 13.75 11.25 13.75ZM15 2.5C12.5277 2.5 10.111 3.23311 8.05538 4.60663C5.99976 5.98015 4.39761 7.93238 3.45151 10.2165C2.50542 12.5005 2.25787 15.0139 2.74019 17.4386C3.2225 19.8634 4.41301 22.0907 6.16117 23.8388C7.90933 25.587 10.1366 26.7775 12.5614 27.2598C14.9861 27.7421 17.4995 27.4946 19.7836 26.5485C22.0676 25.6024 24.0199 24.0002 25.3934 21.9446C26.7669 19.889 27.5 17.4723 27.5 15C27.5 13.3585 27.1767 11.733 26.5485 10.2165C25.9203 8.69989 24.9996 7.3219 23.8388 6.16117C22.6781 5.00043 21.3001 4.07969 19.7836 3.45151C18.267 2.82332 16.6415 2.5 15 2.5ZM15 25C13.0222 25 11.0888 24.4135 9.4443 23.3147C7.79981 22.2159 6.51809 20.6541 5.76121 18.8268C5.00433 16.9996 4.8063 14.9889 5.19215 13.0491C5.57801 11.1093 6.53041 9.32746 7.92894 7.92893C9.32746 6.53041 11.1093 5.578 13.0491 5.19215C14.9889 4.8063 16.9996 5.00433 18.8268 5.7612C20.6541 6.51808 22.2159 7.79981 23.3147 9.4443C24.4135 11.0888 25 13.0222 25 15C25 17.6522 23.9464 20.1957 22.0711 22.0711C20.1957 23.9464 17.6522 25 15 25ZM18.75 16.25H11.25C10.9185 16.25 10.6005 16.3817 10.3661 16.6161C10.1317 16.8505 10 17.1685 10 17.5C10 18.8261 10.5268 20.0979 11.4645 21.0355C12.4022 21.9732 13.6739 22.5 15 22.5C16.3261 22.5 17.5979 21.9732 18.5355 21.0355C19.4732 20.0979 20 18.8261 20 17.5C20 17.1685 19.8683 16.8505 19.6339 16.6161C19.3995 16.3817 19.0815 16.25 18.75 16.25ZM15 20C14.5616 19.9995 14.131 19.8838 13.7515 19.6644C13.3719 19.445 13.0567 19.1297 12.8375 18.75H17.1625C16.9433 19.1297 16.6281 19.445 16.2486 19.6644C15.869 19.8838 15.4384 19.9995 15 20ZM18.75 11.25C18.5028 11.25 18.2611 11.3233 18.0555 11.4607C17.85 11.598 17.6898 11.7932 17.5952 12.0216C17.5005 12.2501 17.4758 12.5014 17.524 12.7439C17.5723 12.9863 17.6913 13.2091 17.8661 13.3839C18.0409 13.5587 18.2637 13.6778 18.5061 13.726C18.7486 13.7742 19 13.7495 19.2284 13.6549C19.4568 13.5602 19.652 13.4 19.7893 13.1945C19.9267 12.9889 20 12.7472 20 12.5C20 12.1685 19.8683 11.8505 19.6339 11.6161C19.3995 11.3817 19.0815 11.25 18.75 11.25Z" fill="#222528"/>
</svg>
