<svg width="30" height="30" viewBox="0 0 30 30" fill="none" xmlns="http://www.w3.org/2000/svg">
<path d="M15.0001 2.5C11.7955 2.50914 8.71689 3.74864 6.40002 5.96248V3.74999C6.40002 3.41848 6.26832 3.10053 6.0339 2.86611C5.79948 2.6317 5.48153 2.5 5.15001 2.5C4.81849 2.5 4.50055 2.6317 4.26612 2.86611C4.0317 3.10053 3.90001 3.41848 3.90001 3.74999V9.37497C3.90001 9.70649 4.0317 10.0244 4.26612 10.2588C4.50055 10.4933 4.81849 10.625 5.15001 10.625H10.775C11.1066 10.625 11.4245 10.4933 11.6589 10.2588C11.8933 10.0244 12.025 9.70649 12.025 9.37497C12.025 9.04345 11.8933 8.72551 11.6589 8.49109C11.4245 8.25667 11.1066 8.12497 10.775 8.12497H7.77502C9.38225 6.44543 11.5244 5.37831 13.8332 5.10708C16.142 4.83584 18.4732 5.37746 20.4259 6.63879C22.3786 7.90012 23.8309 9.80236 24.533 12.0184C25.2351 14.2345 25.1432 16.626 24.2731 18.7817C23.403 20.9373 21.809 22.7225 19.7653 23.8303C17.7215 24.9381 15.3557 25.2992 13.0745 24.8516C10.7933 24.404 8.73936 23.1756 7.26576 21.3777C5.79216 19.5797 4.99099 17.3246 5.00001 14.9999C5.00001 14.6684 4.86831 14.3505 4.63389 14.1161C4.39947 13.8816 4.08153 13.7499 3.75001 13.7499C3.41848 13.7499 3.10054 13.8816 2.86612 14.1161C2.6317 14.3505 2.5 14.6684 2.5 14.9999C2.5 17.4722 3.23312 19.8889 4.60664 21.9445C5.98016 24.0001 7.9324 25.6023 10.2165 26.5484C12.5006 27.4945 15.0139 27.742 17.4387 27.2597C19.8635 26.7774 22.0908 25.5869 23.8389 23.8387C25.5871 22.0906 26.7776 19.8633 27.2599 17.4386C27.7422 15.0138 27.4947 12.5005 26.5486 10.2164C25.6025 7.93236 24.0003 5.98013 21.9447 4.60662C19.8891 3.23311 17.4723 2.5 15.0001 2.5ZM15.0001 9.99997C14.6685 9.99997 14.3506 10.1317 14.1162 10.3661C13.8817 10.6005 13.75 10.9184 13.75 11.25V14.9999C13.75 15.3315 13.8817 15.6494 14.1162 15.8838C14.3506 16.1182 14.6685 16.2499 15.0001 16.2499H17.5001C17.8316 16.2499 18.1495 16.1182 18.3839 15.8838C18.6184 15.6494 18.7501 15.3315 18.7501 14.9999C18.7501 14.6684 18.6184 14.3505 18.3839 14.1161C18.1495 13.8816 17.8316 13.7499 17.5001 13.7499H16.2501V11.25C16.2501 10.9184 16.1184 10.6005 15.8839 10.3661C15.6495 10.1317 15.3316 9.99997 15.0001 9.99997Z" fill="#222528"/>
</svg>
